<svg xmlns="http://www.w3.org/2000/svg" xmlns:xlink="http://www.w3.org/1999/xlink" id="Layer_1" x="0px" y="0px" viewBox="0 0 450 450" style="enable-background:new 0 0 450 450;" xml:space="preserve"><style type="text/css">	.st0{fill:#CACACC;}	.st1{fill:#1091EF;}	.st2{fill:#EFEFEF;}	.st3{fill:#FFBD35;}	.st4{fill:#CC5A08;}	.st5{fill:#610000;}	.st6{fill:#FF7F22;}</style><g id="illustration_10_">	<g>		<path class="st0" d="M123.8,48.8C131,50.5,131,50.5,123.8,48.8c7.7-0.6,10.5-2.2,13.8-9.4c-1.7,7.2-1.7,7.2,0,0   c0.6,7.7,2.2,10.5,9.4,13.8c-7.2-1.7-7.2-1.7,0,0c-7.7,0.6-10.5,2.2-13.8,9.4c1.7-7.2,1.7-7.2,0,0C132.1,54.4,131,52.7,123.8,48.8   z"></path>	</g>	<g>		<path class="st0" d="M54.2,105C57.9,105.6,57.9,105.6,54.2,105c4.1-0.3,5.5-1.2,7.3-4.9c-0.9,3.8-0.9,3.8,0,0   c0.3,4.1,1.2,5.5,4.9,7.3c-3.8-0.9-3.8-0.9,0,0c-4.1,0.3-5.5,1.2-7.3,4.9c0.9-3.8,0.9-3.8,0,0C58.5,107.9,57.7,107,54.2,105z"></path>	</g>	<g>		<path class="st0" d="M357.4,104.9C362.8,105.9,362.8,105.9,357.4,104.9c5.4-0.5,6.9-1.5,9.4-6.4c-1,4.9-1,4.9,0,0   c0.5,5.4,1.5,6.9,5.9,9.4c-4.9-1-4.9-1,0,0c-5.4,0.5-6.9,1.5-9.4,5.9c1-4.9,1-4.9,0,0C363.3,108.9,362.8,107.4,357.4,104.9z"></path>	</g>	<g id="launch_and_publish_1_">		<g>			<path class="st1" d="M384.9,238.7c0-87.7-71.1-158.8-158.8-158.8S67.3,151.1,67.3,238.7c0,87.7,71.2,158.8,158.8,158.8    C313.8,397.5,384.9,326.4,384.9,238.7z"></path>		</g>		<path class="st2" d="M385.1,239.1c0-17.1-2.7-33.5-7.6-48.9c0.2,22.4-1.6,66.3-17.9,76.2c-11.3,6.9,0,0-4.9,3.3   c-5,3.3-19.8,6.4-26.3,29.8c-6.4,23.3-23.6,36.3-46.4,44.7c-5.9,2.2-13.6-0.6-18.9,5.4c-5-5.8-9.3-6.2-14.5-13.4   C239.2,322.7,233,259,233,259h-10.8c0,0-8.1,65.1-16.5,84.5c-4.6,10.8-8.2,7.1-13.4,6.9c-5.9-7.6-18.4-0.2-25.4-2.7   c-22.8-8.4-19.3,4.2-25.9-19.1c-6.5-23.3-33.3-34.4-38.2-37.7c-5-3.3,2.6-18-8.8-24.6c-9.3-5.4-17.8-52.2-20.8-70.5   c-3.9,13.8-6,28.3-6,43.3C67,327.3,138.3,398.9,226,398.9C313.9,398.9,385.1,327.3,385.1,239.1z"></path>		<g>			<g>				<polygon class="st3" points="278.1,224.1 282.9,266.9 287.7,266.9 283.5,224.5     "></polygon>			</g>			<g>				<g>					<polygon class="st3" points="176.2,224.1 171.3,266.9 166,266.9 170.1,224.5      "></polygon>				</g>				<g>					<path class="st4" d="M176.2,224.1l-4.6,41.8l4.3-7c5.8-9.4,15.8-15.1,26.6-15.2h1.8c-4.4-15.3-6.9-27.9-8.1-35L176.2,224.1z"></path>				</g>				<g>					<path class="st4" d="M278.2,224.1L258.4,209c2.9-15.5,5.3-33.9,6.2-54.2c0.7-21.8-5.9-45.6-12.1-61l0,0l-0.1-0.3l-0.2-0.5l0,0      c-8.2-18.1-18-30.3-22.1-34.9l-1.1-0.7l-0.7,40.3h-0.1l-0.4,21.6l0.9-0.1c6.3,0.1,11.5,5.5,11.4,12.1      c-0.1,6.5-5.3,11.9-11.8,11.8l-1-0.1l-2.2,115c10.4,0.1,20.8-1.1,20.8-1.1s1.8-4.8,4.3-13.2h1.8c10.8,0.1,20.8,5.8,26.6,15.2      l4.3,7L278.2,224.1z"></path>				</g>				<g>					<path class="st5" d="M195.5,203.6l-0.2-0.9c0,0,0.3,2.2,0.9,6.2l0,0C196,207.1,195.8,205.2,195.5,203.6z"></path>				</g>				<g>					<path class="st6" d="M226,58.4c-4.4,4.9-14.8,17.6-23,37.3l0,0c-5.2,14.1-11,35.9-11.2,56.2c-0.2,19.4,1.6,36.8,3.8,51.7      c0.3,1.8,0.6,3.5,0.7,5.2l0,0c1.2,7.1,3.7,19.8,8.1,35c2.3,7.8,4,12.1,4,12.1c4.1,1.6,10.4,2.1,16.5,2.1l2.3-115      c-5.9-0.7-10.4-5.8-10.4-12c0.1-6.3,4.9-11.3,10.8-11.7l0.3-21.5l0.9-40.6L226,58.4z"></path>				</g>				<g>					<path class="st3" d="M237.2,131.2c0-4.9-4-8.9-8.9-8.9c-4.9,0-8.9,4-8.9,8.9c0,4.9,4,8.9,8.9,8.9      C233.3,140,237.2,136.1,237.2,131.2z"></path>				</g>			</g>		</g>	</g>	<g>		<path class="st2" d="M255.4,329.9c0-1.2-0.9-2.2-2.2-2.2s-2.2,0.9-2.2,2.2c0,1.3,0.9,2.2,2.2,2.2S255.4,331.1,255.4,329.9z"></path>	</g>	<g>		<path class="st2" d="M198.6,337.4c0-1.2-0.9-2.2-2.2-2.2s-2.2,0.9-2.2,2.2c0,1.3,0.9,2.2,2.2,2.2   C197.5,339.7,198.6,338.7,198.6,337.4z"></path>	</g>	<g>		<path class="st2" d="M206.7,321.3c0-1.3-1.1-2.4-2.4-2.4s-2.4,1.1-2.4,2.4c0,1.3,1.1,2.4,2.4,2.4   C205.6,323.7,206.7,322.6,206.7,321.3z"></path>	</g>	<g>		<path class="st2" d="M192.7,321.5c0-1.3-1.1-2.4-2.4-2.4s-2.4,1.1-2.4,2.4c0,1.3,1.1,2.4,2.4,2.4S192.7,322.8,192.7,321.5z"></path>	</g>	<g>		<polygon class="st0" points="274,33.5 286,33.5 296,27.3 295.7,39 303.3,50.8 290.1,49 280.1,55.2 280.4,43.4   "></polygon>	</g></g></svg>