<svg xmlns="http://www.w3.org/2000/svg" xmlns:xlink="http://www.w3.org/1999/xlink" id="Layer_1" x="0px" y="0px" viewBox="0 0 450 450" style="enable-background:new 0 0 450 450;" xml:space="preserve"><style type="text/css">	.st0{fill:#8C8C8C;}	.st1{fill:#EFEFEF;}	.st2{fill:#CC5A08;}	.st3{fill:#0363AA;}	.st4{fill:#1091EF;}	.st5{fill:#FFBD35;}	.st6{fill:#4D5357;}	.st7{fill:#222222;}	.st8{fill:#FF7F22;}	.st9{fill:#CACACC;}	.st10{fill:#54636A;}	.st11{fill:#FFFFFF;}</style><g>	<g>		<g id="paper_clip_8_">			<g>				<path class="st0" d="M365.6,334.5l-0.3-0.1c-4.9-1.9-7.6-7.5-5.7-12.4l8-21.5c0.3-0.6,0.9-0.9,1.4-0.6s0.9,0.9,0.6,1.4l-8,21.5     c-1.4,3.9,0.5,8.2,4.4,9.6l0.3,0.1c3.8,1.4,8.2-0.5,9.6-4.4l10.5-28.2c1.1-2.9-0.4-6.1-3.3-7.2s-6.1,0.4-7.2,3.3l-8.2,21.9     c-0.6,1.5,0.3,3.3,1.8,3.9l0.4,0.1c1.5,0.6,3.3-0.3,3.9-1.8l5.3-14.3c0.3-0.6,0.9-0.9,1.4-0.6c0.6,0.3,0.9,0.9,0.6,1.4     l-5.3,14.3c-1,2.7-4.1,4.1-6.7,3l-0.4-0.1c-2.7-1-4.1-4.1-3-6.7l8.2-21.9c1.5-4.1,6-6.1,10-4.6c4.1,1.5,6.1,6,4.6,10L378,328.8     C376.2,333.9,370.6,336.4,365.6,334.5z"></path>			</g>		</g>		<g>			<g>									<rect x="150.9" y="176.2" transform="matrix(1 -1.951835e-03 1.951835e-03 1 -0.5229 0.443)" class="st1" width="151.6" height="183.8"></rect>			</g>		</g>		<g>			<g>				<g>					<path class="st2" d="M142.3,401.6l-17.9-12.3l-4.6,6.7c-0.8,1.1-0.5,2.8,0.8,3.5l13.7,9.5c1.1,0.8,2.8,0.5,3.5-0.8L142.3,401.6      z"></path>				</g>			</g>			<g>				<g>					<polygon class="st3" points="188.3,329.6 181,328.9 177.1,322 172.9,320.7 124.4,389.3 142.3,401.6 190.7,333      "></polygon>				</g>			</g>			<g>				<g>					<polygon class="st4" points="138.9,399.3 142.3,401.6 190.7,333 190.8,332.9 188.1,329.6 180.3,329.1 133.4,395.4      "></polygon>				</g>			</g>			<g>				<g>					<g>						<polygon class="st5" points="186.9,311.7 172.6,320.9 177.5,333 190.7,333 194.8,317.1       "></polygon>					</g>				</g>				<g>					<polygon class="st6" points="195.6,308 186.9,311.7 194.8,317.1      "></polygon>				</g>			</g>		</g>		<g>			<g>				<g>					<path class="st7" d="M203.8,227.7l0.6-25.3l33.1,0.8l-0.6,25.3L203.8,227.7z M206.7,204.8l-0.5,20.5l28.2,0.6l0.5-20.6      L206.7,204.8z"></path>				</g>			</g>			<g>				<g>					<path class="st7" d="M162.7,266.1l0.6-25.3l33.1,0.8l-0.6,25.3L162.7,266.1z M165.7,243.2l-0.5,20.6l28.2,0.6l0.5-20.6      L165.7,243.2z"></path>				</g>			</g>			<g>				<g>					<path class="st7" d="M215,307.9l0.6-25.3l33.1,0.8l-0.6,25.3L215,307.9z M217.9,285l-0.5,20.6l28.2,0.6l0.5-20.5L217.9,285z"></path>				</g>			</g>			<g>				<g>					<path class="st7" d="M257.5,257.1l0.5-20.3l26.2,0.6l-0.5,20.3L257.5,257.1z M260.3,239.3l-0.4,15.5l21.4,0.5l0.4-15.5      L260.3,239.3z"></path>				</g>			</g>			<g>				<g>					<g>						<path class="st7" d="M176.6,231.1c2.8-16.7,19.5-18.9,20.1-19l-0.3-2.4c-0.1,0-19.1,2.4-22.3,20.9L176.6,231.1z"></path>					</g>				</g>				<g>					<g>						<polygon class="st7" points="175.1,232.7 179.5,230.1 178.4,228.1 175.8,229.5 174.2,227 172.2,228.2       "></polygon>					</g>				</g>			</g>			<g>				<g>					<g>						<path class="st7" d="M206.6,293l0.3-2.4c-16.8-1.9-19.9-18.5-20-19.1l-2.4,0.4C184.6,272.1,188,290.9,206.6,293z"></path>					</g>				</g>				<g>					<g>						<polygon class="st7" points="204.3,295.1 208.5,292.1 205.9,287.8 203.8,289 205.4,291.4 202.9,293.2       "></polygon>					</g>				</g>			</g>			<g>				<g>					<g>						<path class="st7" d="M257,291.3c0.1,0,18.4-6,18.1-24.7h-2.4c0.3,17-16.2,22.3-16.3,22.3L257,291.3z"></path>					</g>				</g>				<g>					<g>						<polygon class="st7" points="275.9,270.3 277.5,268.6 273.9,264.8 270.1,268.1 271.6,269.9 273.7,268.1       "></polygon>					</g>				</g>			</g>			<g>				<g>					<g>						<path class="st7" d="M273.2,230.8l2.2-0.9c-0.1-0.1-7.7-17.7-26.3-15.6l0.3,2.4C266.3,214.7,273,230.1,273.2,230.8z"></path>					</g>				</g>				<g>					<g>						<polygon class="st7" points="251.1,219.2 252.8,217.6 250.8,215.6 252.7,213.2 250.9,211.6 247.5,215.7       "></polygon>					</g>				</g>			</g>		</g>	</g>	<g>					<rect x="46.2" y="97.3" transform="matrix(0.733 -0.6802 0.6802 0.733 -65.6855 84.5831)" class="st5" width="57.4" height="57.4"></rect>	</g>	<g>					<rect x="186.6" y="50.4" transform="matrix(0.965 -0.2624 0.2624 0.965 -13.2128 59.2665)" class="st8" width="57.4" height="57.4"></rect>	</g>	<g>					<rect x="312" y="76.8" transform="matrix(0.4939 -0.8695 0.8695 0.4939 79.9813 352.2873)" class="st4" width="61.2" height="61.2"></rect>	</g>	<g>		<path class="st5" d="M359.2,99.6l-0.8-0.4c0.5-3.8-1.5-6.6-5.6-8.7c-4.4-2.4-8.5-0.9-11.9,4.3c-1.3-0.1-2.8,1-3.8,2.8   c-1.1,2-1.1,4.2,0,5.1c-0.6,2.2-0.8,4.1,0,6l-2.2,3.8l2.5,7.9l5.7-3.4l1.1-2l0,0c3.8,2,6.8-1.3,9.8-6l1.1,0.6L359.2,99.6z"></path>	</g>	<g>		<rect x="370.9" y="205.2" class="st5" width="57.4" height="57.4"></rect>	</g>	<g>					<rect x="26.5" y="258.9" transform="matrix(0.1842 -0.9829 0.9829 0.1842 -237.601 288.9199)" class="st1" width="57.4" height="57.4"></rect>	</g>	<g>		<path class="st9" d="M139.9,204.9l-9.1-9.9l4.9-4.6l9.1,9.9L139.9,204.9z M121.8,185l-9.1-9.9l4.9-4.6l9.1,9.9L121.8,185z    M103.6,165.2l-7.5-8.2l4.9-4.6l7.5,8.2L103.6,165.2z"></path>	</g>	<g>		<path class="st9" d="M183.4,171.6l-6-3.2l6.3-11.9l6,3.2L183.4,171.6z M196,147.8l-6-3.2l6.3-11.9l6,3.2L196,147.8z M208.6,124   l-6-3.2l1.8-3.4l6,3.2L208.6,124z"></path>	</g>	<g>		<path class="st9" d="M389.3,201.3l-4.7-11.8l6.2-2.4l4.7,11.8L389.3,201.3z M379.6,176.9l-4.9-12.5l6.2-2.5l4.9,12.5L379.6,176.9z    M369.7,151.9l-4.9-12.5l6.2-2.4l4.9,12.5L369.7,151.9z"></path>	</g>	<g>		<path class="st9" d="M230.7,173.8l-2.9-6.1l9.2-4.6l2.9,6.1L230.7,173.8z M252,163.3l-2.9-6.1l12-6l2.9,6.1L252,163.3z    M276.2,151.4l-2.9-6.1l12-6l2.9,6.1L276.2,151.4z M300.2,139.5l-2.9-6.1l12-6l2.9,6.1L300.2,139.5z"></path>	</g>	<g>		<path class="st9" d="M90.5,283.5l-2.3-6.3l6.3-2.3l2.3,6.3L90.5,283.5z M109.5,276.5l-2.3-6.3l12.7-4.7l2.3,6.3L109.5,276.5z    M134.8,267.2l-2.3-6.3l12.7-4.7l2.3,6.3L134.8,267.2z"></path>	</g>	<g>		<path class="st9" d="M103.4,111.2l-1.6-6.5l6.6-1.6l1.6,6.5L103.4,111.2z M123,106.3l-1.6-6.5l13-3.3l1.6,6.5L123,106.3z    M149.1,99.8l-1.6-6.5l13-3.3l1.6,6.5L149.1,99.8z M175.2,93.2l-1.6-6.5l13-3.3l1.6,6.5L175.2,93.2z"></path>	</g>	<g>		<path class="st9" d="M53.7,241.7H47v-13.4h6.7V241.7z M53.7,214.8H47v-13.4h6.7V214.8z M53.7,187.8H47v-13.4h6.7V187.8z M53.7,161   H47v-13.4h6.7V161z"></path>	</g>	<g>		<path class="st9" d="M369.9,243.9h-13.4v-6.8h13.4V243.9z M343,243.9h-13.4v-6.8H343V243.9z M316,243.9h-8v-6.8h8V243.9z"></path>	</g>	<g>		<path class="st9" d="M311.9,95.9l-9.5-2.4L304,87l9.5,2.4L311.9,95.9z M289.3,90.1l-13-3.3l1.6-6.5l13,3.3L289.3,90.1z    M263.2,83.5l-13-3.3l1.6-6.5l13,3.3L263.2,83.5z"></path>	</g>	<g>		<g>			<path class="st10" d="M354.8,102.7c0.5-0.8,0.1-1.9-0.6-2.3c-0.8-0.4-1.8-0.1-2.3,0.6c-0.5,0.8-0.1,1.9,0.6,2.3    C353.3,103.9,354.3,103.6,354.8,102.7z"></path>		</g>		<g>			<path class="st7" d="M358.1,99.2l-4.6-2.4c0,0-5.4-3.8-6.7-2.2c-1.3,1.6-1.8,1.4-2.2,2.7c-0.6,2.3-1.3,2.9-1.3,2.9l-1.8-1.3    c0,0,2.2-1.9,0.8-3.3c-1-1-1.9-1-2.5-0.6c2.2-3.2,4.9-10.4,10.9-7.1s10,4.3,11.9,5.8C363.9,94.7,363.2,100.3,358.1,99.2z"></path>		</g>		<g>			<path class="st3" d="M318.5,117l32.3,17.5c1.6-2.9,2-6.5,1-9.8s-3.2-6-6.2-7.6l-9.9-5.3c-2.9-1.6-6.5-2-9.8-1    C322.8,111.8,320.1,114,318.5,117z"></path>		</g>	</g>	<g id="icon_2_">		<g>			<path class="st11" d="M71.7,119.4c2.8-1.8,6.5-1,8.2,1.6c1.8,2.8,1,6.5-1.6,8.2c-2.8,1.8-6.5,1-8.2-1.6    C68.3,124.9,69.1,121.2,71.7,119.4L71.7,119.4z M69.5,115.9c-4.7,3-6,9.4-2.8,14.1s9.4,6,14.1,2.8c4.7-3,6-9.4,2.8-14.1    C80.5,114.1,74.1,112.9,69.5,115.9L69.5,115.9z"></path>		</g>		<g>							<rect x="65.8" y="109.8" transform="matrix(0.8327 -0.5537 0.5537 0.8327 -50.5682 55.4868)" class="st11" width="1.5" height="3.3"></rect>		</g>		<g>							<rect x="59.2" y="119.6" transform="matrix(0.1974 -0.9803 0.9803 0.1974 -70.8109 156.0685)" class="st11" width="1.5" height="3.3"></rect>		</g>		<g>							<rect x="60.5" y="132.2" transform="matrix(0.8329 -0.5534 0.5534 0.8329 -63.1904 56.6119)" class="st11" width="3.3" height="1.5"></rect>		</g>		<g>			<g>									<rect x="79.1" y="134" transform="matrix(0.8328 -0.5535 0.5535 0.8328 -61.3668 68.5005)" class="st11" width="7.2" height="3.7"></rect>			</g>			<g>				<path class="st11" d="M85.4,135.7c-0.5-0.9-1.9-0.9-3-0.1c-1.1,0.8-1.5,2-1,2.8c0.5,0.9,1.9,0.9,3,0.1     C85.5,137.8,86,136.5,85.4,135.7z"></path>			</g>			<g>									<rect x="82.3" y="134.7" transform="matrix(0.8329 -0.5534 0.5534 0.8329 -61.5652 68.7512)" class="st11" width="1.5" height="3.3"></rect>			</g>		</g>		<g>							<rect x="86.3" y="115" transform="matrix(0.8329 -0.5535 0.5535 0.8329 -49.3817 68.0209)" class="st11" width="3.3" height="1.5"></rect>		</g>		<g>							<rect x="76.5" y="108.4" transform="matrix(0.1974 -0.9803 0.9803 0.1974 -44.2449 164.2278)" class="st11" width="3.3" height="1.5"></rect>		</g>	</g>	<g>		<polygon class="st11" points="381.4,253.2 382.2,252.2 390.6,242.4 399.1,246 401.2,246.9 415.9,225.5 416.6,224.3 419.7,226.6    419,216.5 409.6,219.1 412.7,221.8 398.9,239.6 398.6,240.1 398.1,239.9 389.8,236.3 381.3,246.2   "></polygon>	</g>	<g id="icon_1_">		<path class="st4" d="M64,289.8c0.9-3.2,2.9-5.6,5.1-6.3c-0.6-2.4-1.9-4.7-3.7-6.6c-1.8,1.3-4.8,1.6-8,0.6   c-3.2-0.9-5.4-2.9-6.3-4.9c-2.5,0.6-4.8,1.8-6.7,3.4c1.4,1.8,1.8,4.8,0.8,8.1c-1,3.4-3.2,5.8-5.4,6.5c0.6,2.5,1.8,4.9,3.5,6.8   c1.6-1.6,4.9-2,8.5-1c3.4,1,6,3.3,6.5,5.4c2.5-0.6,4.8-2,6.7-3.8C63.4,296.4,63,293.1,64,289.8z M52.5,293.6   c-3.5-1-5.4-4.7-4.4-8.2c1-3.4,4.7-5.4,8.2-4.4s5.4,4.7,4.4,8.2C59.7,292.6,56,294.6,52.5,293.6z"></path>	</g>	<g>		<g>			<path class="st11" d="M215.4,59.4c-10.9,0-19.8,8.9-19.8,19.8S204.5,99,215.4,99s19.8-8.9,19.8-19.8    C235.2,68.3,226.4,59.4,215.4,59.4z M215.4,94.1c-8.2,0-14.8-6.6-14.8-14.8s6.6-14.8,14.8-14.8s14.8,6.6,14.8,14.8    C230.2,87.4,223.6,94.1,215.4,94.1z"></path>		</g>	</g>	<g>		<g>			<path class="st11" d="M215.4,68.8c-5.7,0-10.4,4.7-10.4,10.4c0,5.7,4.7,10.4,10.4,10.4c5.8,0,10.4-4.7,10.4-10.4    C225.9,73.5,221.2,68.8,215.4,68.8z M215.4,84.6c-2.9,0-5.3-2.4-5.3-5.3s2.4-5.3,5.3-5.3s5.3,2.4,5.3,5.3S218.3,84.6,215.4,84.6z    "></path>		</g>	</g>	<g>		<g>			<path class="st8" d="M215.4,74c-2.9,0-5.3,2.4-5.3,5.3s2.4,5.3,5.3,5.3s5.3-2.4,5.3-5.3S218.3,74,215.4,74z"></path>		</g>	</g>	<g>		<g>			<g>				<path class="st8" d="M215.4,64.5c-8.2,0-14.8,6.6-14.8,14.8s6.6,14.8,14.8,14.8s14.8-6.6,14.8-14.8S223.6,64.5,215.4,64.5z      M215.4,89.7c-5.7,0-10.4-4.7-10.4-10.4s4.7-10.4,10.4-10.4c5.8,0,10.4,4.7,10.4,10.4C225.9,85,221.2,89.7,215.4,89.7z"></path>			</g>		</g>	</g></g></svg>