<svg xmlns="http://www.w3.org/2000/svg" xmlns:xlink="http://www.w3.org/1999/xlink" id="Layer_1" x="0px" y="0px" viewBox="0 0 450 450" style="enable-background:new 0 0 450 450;" xml:space="preserve"><style type="text/css">	.st0{fill:#CACACC;}	.st1{fill:#EFEFEF;}	.st2{fill:#8C8C8C;}	.st3{fill:#FFBD35;}	.st4{fill:#FF7F22;}	.st5{fill:#E86A13;}	.st6{fill:#1091EF;}	.st7{fill:#0363AA;}	.st8{fill:#FF6D3B;}	.st9{fill:#F2F9FF;}	.st10{fill:#CC5A08;}	.st11{fill:#999999;}	.st12{fill:#FFFFFF;}	.st13{fill:#2A445E;}	.st14{fill:#F15424;}	.st15{fill-rule:evenodd;clip-rule:evenodd;fill:#1091EF;}</style><g>	<path class="st0" d="M86.4,384.7c1.4,2.6,4.6,3.6,7.2,2.2l0,0l17.2-9.3c2.6-1.4,3.6-4.6,2.2-7.2l0,0L80.5,310l-26.6,14.3  L86.4,384.7z"></path>	<path class="st1" d="M96.7,385.2l-3.1,1.7c-0.6,0.3-1.3,0.5-2.1,0.6l-34.9-64.7l4.9-2.7L96.7,385.2z"></path>	<path class="st2" d="M100.8,347.7l0.9-0.5c2.6-1.4,3.6-4.6,2.2-7.2l0,0l-2.5-4.7c-1.4-2.6-4.6-3.5-7.2-2.2l-0.9,0.5L100.8,347.7z"></path>	<path class="st3" d="M188.6,254.8c3.5,15.3-6.1,30.5-21.5,34c-15.3,3.5-30.6-6.1-34.1-21.4s6.1-30.5,21.5-34  C169.9,229.8,185.1,239.4,188.6,254.8L188.6,254.8z"></path>			<rect x="193.6" y="247.9" transform="matrix(0.9752 -0.2213 0.2213 0.9752 -50.0459 52.8182)" class="st0" width="34.2" height="3.7"></rect>	<polygon class="st0" points="187.4,236.5 205.7,207.6 208.8,209.5 190.5,238.4  "></polygon>	<polygon class="st0" points="226.4,286.9 197.4,268.7 195.5,271.8 224.4,290  "></polygon>	<path class="st0" d="M96.1,238.6l-19.7,4.5l16.1,70.6l19.7-4.5c23.4-5.3,48,0.7,66.3,16.2l-29.6-130  C139.1,217.3,119.5,233.3,96.1,238.6z"></path>	<path class="st1" d="M100,255.7l-19.7,4.5l-2.7-11.9l19.7-4.5c23.4-5.3,43-21.3,52.7-43.2l2.7,11.9  C142.9,234.4,123.4,250.4,100,255.7z"></path>	<path class="st2" d="M193.3,322c0.9,4.1-1.6,8.2-5.7,9.1l0,0c-4.1,0.9-8.2-1.6-9.1-5.7l-29.6-130c-0.9-4.1,1.6-8.2,5.7-9.1l0,0l0,0  c4.1-0.9,8.2,1.6,9.1,5.7L193.3,322z"></path>	<path class="st4" d="M92.9,315.5l-48.3,11c-14.4,3.3-28.7-5.7-31.9-20.1l0,0l-5.1-22.3c-3.3-14.4,5.7-28.6,20.1-31.9l0,0l48.3-11  L92.9,315.5z"></path>	<path class="st5" d="M15.1,281.7c-0.2,0-0.3,0.1-0.5,0.1c-1.5,0.1-2.7-1-2.8-2.5l0,0c-0.5-10.5,6.6-19.9,16.9-22.2l16.7-3.8  c1.4-0.3,2.9,0.6,3.2,2c0.3,1.4-0.6,2.9-2,3.2l-16.7,3.8c-7.8,1.8-13.1,8.8-12.7,16.8C17.3,280.3,16.4,281.4,15.1,281.7z"></path>	<path class="st3" d="M12.6,306.4l1.5-0.3c2.1-0.5,3.3-2.5,2.9-4.6l-3.4-14.9c-0.5-2.1-2.5-3.3-4.6-2.9l0,0L7.5,284L12.6,306.4z"></path>			<rect x="209.3" y="129.5" transform="matrix(0.9227 -0.3854 0.3854 0.9227 -39.2212 107.4113)" class="st6" width="78.1" height="44.1"></rect>	<path class="st7" d="M238.4,150.2l-9,3.8l0.6,1.3l8.6-3.6C238.5,151.3,238.4,150.8,238.4,150.2z"></path>	<path class="st7" d="M256.8,147.3c0.1,0.2,0.2,0.4,0.3,0.7c0.1,0.2,0.2,0.5,0.3,0.7l11.3-4.7l-0.6-1.3L256.8,147.3z"></path>	<path class="st7" d="M239.5,155.3c-0.1-0.2-0.2-0.5-0.3-0.7l-11.3,4.7l0.6,1.3l11.3-4.7C239.7,155.7,239.6,155.5,239.5,155.3z"></path>	<path class="st7" d="M263.8,141.2l-0.6-1.3l-9,3.8c0.4,0.4,0.7,0.7,1,1.2L263.8,141.2z"></path>	<path class="st7" d="M258.1,152.9l9-3.8l-0.6-1.3l-8.6,3.6C258.1,151.9,258.1,152.4,258.1,152.9z"></path>	<path class="st7" d="M241.3,158.4l-8.6,3.6l0.6,1.3l9-3.8C242,159.2,241.6,158.8,241.3,158.4z"></path>	<path class="st7" d="M245.7,146.7l1.6,3.9c-1.5,0.2-2.7,0.1-3.1-0.9C243.8,148.4,244.5,147.1,245.7,146.7z M249.4,152.1l1.8,4.4  c1.7-1,1.9-2.3,1.5-3.2C252.2,152,250.9,152,249.4,152.1z M259.6,146.9c3,7.3,0.5,15.3-5.8,17.9c-6.2,2.6-13.8-1.2-16.8-8.4  c-3-7.3-0.5-15.3,5.8-17.9C249,135.8,256.6,139.6,259.6,146.9z M254.3,152.4c-1-2.5-3.4-2.3-5.6-2.1l-1.7-4.2  c1.1-0.3,2.4-0.2,3.4,0.3l0.5-1.6c-1.4-0.6-3-0.7-4.5-0.2l-0.7-1.8l-1.2,0.5l0.7,1.7c-2.2,1.1-3.3,3.2-2.5,5.2  c1,2.3,3.3,2.2,5.4,1.9l1.9,4.6c-1.4,0.4-2.9,0.3-4.1-0.4l-0.4,1.6c1.6,0.8,3.5,0.8,5.2,0.2l0.7,1.7l1.2-0.5l-0.7-1.7  C254.6,156.4,255,154.2,254.3,152.4z"></path>	<path class="st7" d="M264.6,123.4l-47.8,20l-10,4.2l4.2,9.9l6.9,16.5l4.2,9.9l10-4.2l47.8-20l10-4.2l-4.2-9.9l-6.9-16.5l-4.2-9.9  L264.6,123.4z M283.4,146.4c-2,1.1-3.5,2.8-4.3,4.9c-0.9,2.1-1,4.4-0.3,6.5l-47.4,19.8c-1.1-2-2.8-3.5-4.9-4.3  c-2.1-0.9-4.4-1-6.5-0.3l-6.7-16.1c2-1.1,3.5-2.8,4.3-4.9c0.9-2.1,1-4.4,0.3-6.5l47.4-19.8c1.1,2,2.8,3.5,4.9,4.3  c2.1,0.9,4.4,1,6.5,0.4L283.4,146.4z"></path>			<rect x="347.8" y="251.2" transform="matrix(0.1402 -0.9901 0.9901 0.1402 35.7879 601.0234)" class="st6" width="32.4" height="57.4"></rect>	<path class="st7" d="M358.2,275.3l-7.1-1l-0.1,1.1l6.8,1C357.9,276,358,275.6,358.2,275.3z"></path>	<path class="st7" d="M370.9,280.3c0,0.2,0,0.4-0.1,0.5c0,0.2-0.1,0.4-0.1,0.5l8.9,1.3l0.2-1.1L370.9,280.3z"></path>	<path class="st7" d="M357,278.9c0-0.2,0.1-0.4,0.1-0.5l-8.9-1.3l-0.1,1.1l8.9,1.3C357,279.2,357,279.1,357,278.9z"></path>	<path class="st7" d="M377.7,279.1l0.2-1.1l-7.1-1c0.1,0.4,0.2,0.7,0.2,1.1L377.7,279.1z"></path>	<path class="st7" d="M369.7,284.4l7.1,1l0.1-1.1l-6.8-1C370,283.7,369.9,284.1,369.7,284.4z"></path>	<path class="st7" d="M357,281.5l-6.8-1l-0.1,1.1l7.1,1C357.1,282.3,357,281.9,357,281.5z"></path>	<path class="st7" d="M364.2,275.8l-0.4,3.1c-1-0.4-1.7-0.9-1.6-1.7C362.3,276.2,363.2,275.6,364.2,275.8z M364.4,280.6l-0.5,3.4  c1.5,0,2.1-0.7,2.2-1.5C366.2,281.6,365.4,281.1,364.4,280.6z M372.9,281.1c-0.8,5.7-5.5,9.8-10.4,9.1c-4.9-0.7-8.3-5.9-7.4-11.6  c0.8-5.7,5.5-9.8,10.4-9.1C370.3,270.2,373.7,275.4,372.9,281.1z M367.4,282.6c0.3-2-1.3-2.8-2.8-3.4l0.5-3.3  c0.8,0.2,1.6,0.8,2.1,1.5l0.9-0.8c-0.7-0.9-1.7-1.6-2.8-1.8l0.2-1.4l-0.9-0.1l-0.2,1.4c-1.8-0.1-3.3,0.8-3.5,2.3  c-0.3,1.8,1.2,2.6,2.7,3.2l-0.5,3.7c-1-0.3-1.9-0.9-2.5-1.8l-0.9,0.9c0.7,1.1,1.9,1.8,3.2,2.1l-0.2,1.3l0.9,0.1l0.2-1.3  C366.1,285.3,367.2,284,367.4,282.6z"></path>	<path class="st7" d="M384.8,268.2l-37.7-5.3l-7.8-1.1l-1.1,7.8l-1.8,13l-1.1,7.8l7.9,1.1l37.7,5.3l7.9,1.1l1.1-7.8l1.8-13l1.1-7.8  L384.8,268.2z M388.1,289.7c-1.6-0.1-3.3,0.4-4.5,1.5c-1.3,1-2.3,2.4-2.7,4l-37.4-5.3c0.1-1.6-0.4-3.2-1.4-4.5s-2.4-2.3-4-2.7  l1.8-12.7c3.4,0.1,6.4-2.2,7.2-5.4l37.4,5.3c-0.1,1.6,0.4,3.3,1.5,4.6c1,1.3,2.4,2.3,4,2.7L388.1,289.7z"></path>	<polygon class="st8" points="289.3,310.7 286.5,307 272.6,329.2 277.2,330.1  "></polygon>	<polygon class="st4" points="286.5,307 272.6,329.2 263.3,307.9  "></polygon>	<polygon class="st1" points="290,311 267.9,297.2 255.7,316.7 282.5,333.5 291.7,318.7  "></polygon>	<path class="st6" d="M284.6,321.3c-2.2,3.5-6.7,4.5-10.2,2.3s-4.5-6.7-2.4-10.2c2.2-3.5,6.7-4.5,10.2-2.3l0,0  C285.7,313.2,286.8,317.8,284.6,321.3z"></path>	<path class="st9" d="M281.5,313.3c-2.7-1.6-6.1-0.8-7.8,1.8c-1.3,2-0.8,4.8,1.3,6.1c0.1,0,0.1,0.1,0.2,0.1c0.9,0.6,1.9,0.8,3,0.8  v-0.5c-0.9,0-1.9-0.2-2.7-0.7c-1.9-1.1-2.5-3.5-1.4-5.4c0-0.1,0.1-0.1,0.1-0.2c1.6-2.3,4.7-3,7.1-1.6c1.9,1,2.5,3.4,1.5,5.3  c-0.1,0.1-0.1,0.2-0.2,0.3c-1.1,1.7-2.2,1.7-2.7,1.4c-0.3-0.2-0.4-0.6-0.2-0.9c0,0,0,0,0-0.1c0.1-0.1,0.1-0.2,0.2-0.2l2.8-2.9  l-0.8-0.5l-0.6,0.7c0.1-0.8-0.3-1.5-1-1.9c-1.7-0.9-3.8-0.4-4.8,1.3c-0.7,0.9-0.5,2.3,0.4,3c0.1,0.1,0.1,0.1,0.2,0.1  c0.8,0.5,1.8,0.5,2.6,0.1l-0.1,0.1c-0.3,0.6-0.1,1.3,0.5,1.7c1,0.6,2.7,0.3,3.9-1.5c1.4-2,0.8-4.7-1.2-6.1  C281.7,313.4,281.6,313.4,281.5,313.3z M279.2,318.7c-0.8,0.4-1.7,0.4-2.5,0c-0.7-0.4-0.9-1.3-0.5-2c0-0.1,0.1-0.1,0.1-0.2  c0.7-1.2,2.3-1.7,3.6-1c0.6,0.4,0.8,1,0.7,1.7L279.2,318.7z"></path>	<polygon class="st4" points="290,311 287,315.8 291.7,318.7  "></polygon>	<polygon class="st0" points="286.5,307 254,286.6 240,308.8 272.6,329.2 266.2,311.6  "></polygon>	<polygon class="st4" points="263.3,307.9 240,308.8 254,286.6  "></polygon>	<polygon class="st5" points="272.6,329.2 240,308.8 263.3,307.9  "></polygon>	<polygon class="st10" points="254,286.6 261.3,311.1 286.5,307  "></polygon>	<path class="st2" d="M317.8,158.3c0,11-8.9,19.9-19.9,19.9s-19.9-8.9-19.9-19.8c0-11,8.9-19.9,19.9-19.9l0,0  C308.8,138.5,317.7,147.4,317.8,158.3z"></path>	<path class="st0" d="M317.8,156.9c0,11-8.9,19.9-19.9,19.9S278,167.9,278,157c0-11,8.9-19.9,19.9-19.9l0,0  C308.8,137.1,317.7,145.9,317.8,156.9z"></path>	<path class="st1" d="M297.9,172.2c-8.5,0-15.4-6.9-15.4-15.3c0-8.5,6.9-15.3,15.4-15.3s15.4,6.9,15.4,15.3l0,0  C313.2,165.4,306.4,172.2,297.9,172.2L297.9,172.2z"></path>	<path class="st11" d="M297.1,165.6c-2.2-0.1-4.3-1.1-5.9-2.6l1.7-2.3c1.1,1.2,2.6,2,4.2,2.3v-5c-2.6-0.7-5.3-1.6-5.3-4.9  c0-2.6,2.1-4.6,5.3-4.9v-2.3h2v2.4c1.9,0.2,3.7,1,5.1,2.3l-1.7,2.2c-0.9-0.9-2.1-1.5-3.4-1.8v4.4c2.6,0.7,5.5,1.7,5.5,5.1  c0,2.6-1.7,4.9-5.5,5.2v2.3h-2L297.1,165.6z M297.1,154.8v-4c-1.4,0.2-2.3,1-2.3,2.1C294.8,153.9,295.7,154.4,297.1,154.8z   M299.1,158.6v4.4c1.7-0.3,2.5-1.3,2.5-2.3C301.6,159.5,300.5,159,299.1,158.6L299.1,158.6z"></path>	<path class="st2" d="M283.8,158.1c0-8.5,6.8-15.3,15.3-15.3c3.8,0,7.4,1.4,10.3,3.9c-5.6-6.3-15.3-6.9-21.7-1.2  c-6.3,5.6-6.9,15.3-1.2,21.6c0.4,0.4,0.8,0.9,1.2,1.2C285.1,165.5,283.8,161.9,283.8,158.1z"></path>	<path class="st2" d="M347,110.7c0,5.2-4.3,9.5-9.5,9.5c-5.3,0-9.5-4.2-9.5-9.5c0-5.2,4.3-9.5,9.5-9.5l0,0  C342.7,101.2,347,105.5,347,110.7z"></path>	<path class="st0" d="M347,110c0,5.2-4.3,9.5-9.5,9.5c-5.3,0-9.5-4.2-9.5-9.5c0-5.2,4.3-9.5,9.5-9.5l0,0  C342.7,100.5,347,104.8,347,110z"></path>	<path class="st12" d="M337.5,117.4c-4.1,0-7.4-3.3-7.4-7.3s3.3-7.3,7.4-7.3s7.4,3.3,7.4,7.3C344.9,114.1,341.6,117.4,337.5,117.4  L337.5,117.4z"></path>	<path class="st11" d="M337.1,114.2c-1.1-0.1-2.1-0.5-2.8-1.3l0.8-1.1c0.5,0.6,1.2,1,2,1.1v-2.4c-1.3-0.3-2.6-0.8-2.6-2.3  c0.1-1.3,1.2-2.4,2.6-2.4v-1.1h1v1.1c0.9,0.1,1.8,0.5,2.4,1.1l-0.8,1.1c-0.5-0.4-1-0.7-1.6-0.9v2.1c1.3,0.3,2.6,0.8,2.6,2.4  c0,1.4-1.1,2.5-2.5,2.5h-0.1v1.1h-1V114.2z M337.1,109v-1.9c-0.7,0.1-1.1,0.5-1.1,1S336.5,108.8,337.1,109z M338.1,110.8v2.1  c0.8-0.1,1.2-0.6,1.2-1.1C339.3,111.3,338.8,111,338.1,110.8L338.1,110.8z"></path>	<path class="st2" d="M330.7,110.6c0-4,3.3-7.3,7.3-7.3c1.8,0,3.6,0.7,4.9,1.9c-2.7-3-7.3-3.3-10.4-0.6c-3,2.7-3.3,7.3-0.6,10.4  c0.2,0.2,0.4,0.4,0.6,0.6C331.4,114.2,330.7,112.4,330.7,110.6z"></path>	<path class="st2" d="M357.6,232.3c0,8.3-6.7,15-15,15s-15-6.7-15-15c0-8.3,6.7-15,15-15l0,0C350.8,217.3,357.6,224,357.6,232.3z"></path>	<path class="st0" d="M357.6,231.2c0,8.3-6.7,15-15,15s-15-6.7-15-15c0-8.3,6.7-15,15-15l0,0C350.8,216.2,357.6,222.9,357.6,231.2z"></path>	<path class="st1" d="M342.6,242.8c-6.4,0-11.6-5.2-11.6-11.6s5.2-11.6,11.6-11.6s11.6,5.2,11.6,11.6  C354.2,237.6,349,242.8,342.6,242.8L342.6,242.8z"></path>	<path class="st11" d="M342,237.8c-1.7-0.1-3.3-0.8-4.5-2l1.3-1.7c0.8,0.9,2,1.5,3.2,1.7V232c-2-0.5-4-1.2-4-3.7c0-2,1.6-3.5,4-3.7  v-1.8h1.5v1.8c1.4,0.1,2.8,0.7,3.8,1.7L346,228c-0.7-0.7-1.6-1.2-2.6-1.4v3.3c2,0.5,4.2,1.3,4.2,3.8c0,2-1.3,3.7-4.2,3.9v1.7H342  V237.8z M342,229.6v-3c-1.1,0.1-1.7,0.7-1.7,1.6C340.2,228.9,340.9,229.3,342,229.6z M343.5,232.4v3.3c1.3-0.2,1.9-1,1.9-1.7  C345.3,233.2,344.5,232.8,343.5,232.4z"></path>	<path class="st2" d="M331.9,232.1c0-6.4,5.2-11.6,11.6-11.6c2.9,0,5.6,1,7.8,3c-4.3-4.8-11.6-5.2-16.4-0.9s-5.2,11.6-0.9,16.3  c0.3,0.3,0.6,0.6,0.9,0.9C332.9,237.7,331.9,235,331.9,232.1z"></path>	<path class="st2" d="M344.9,291.8c0,4.2-3.4,7.6-7.6,7.6s-7.6-3.4-7.6-7.6s3.4-7.6,7.6-7.6l0,0  C341.5,284.3,344.9,287.7,344.9,291.8z"></path>	<path class="st0" d="M344.9,291.3c0,4.2-3.4,7.6-7.6,7.6s-7.6-3.4-7.6-7.6s3.4-7.6,7.6-7.6l0,0  C341.5,283.7,344.9,287.1,344.9,291.3z"></path>	<path class="st1" d="M337.4,297.1c-3.2,0-5.8-2.6-5.8-5.8c0-3.2,2.6-5.8,5.8-5.8c3.2,0,5.8,2.6,5.8,5.8  C343.2,294.5,340.6,297.1,337.4,297.1L337.4,297.1z"></path>	<path class="st11" d="M337,294.6c-0.8,0-1.7-0.4-2.3-1l0.6-0.9c0.4,0.5,1,0.8,1.6,0.9v-1.9c-1-0.2-2-0.6-2-1.9c0.1-1.1,1-1.9,2-1.9  V287h0.8v0.9c0.7,0.1,1.4,0.4,1.9,0.9l-0.6,0.8c-0.4-0.4-0.8-0.6-1.3-0.7v1.7c1,0.3,2.1,0.6,2.1,1.9c0,1.1-0.9,2-2,2h-0.1v0.9H337  V294.6z M337,290.5V289c-0.5,0.1-0.9,0.4-0.9,0.8C336.2,290.1,336.5,290.3,337,290.5z M337.8,291.9v1.7c0.7-0.1,0.9-0.5,0.9-0.9  C338.8,292.3,338.3,292.1,337.8,291.9L337.8,291.9z"></path>	<path class="st2" d="M332,291.7c0-3.2,2.6-5.8,5.8-5.8c1.4,0,2.8,0.5,3.9,1.5c-2.2-2.4-5.8-2.6-8.3-0.5s-2.6,5.8-0.5,8.2  c0.1,0.2,0.3,0.3,0.5,0.5C332.5,294.6,332,293.2,332,291.7z"></path>	<path class="st3" d="M416.2,233.2l1.4-6.2l7.7,1.7c1.7,0.4,2.8,2.1,2.4,3.8l0,0l0,0c-0.4,1.7-2.1,2.8-3.8,2.4L416.2,233.2z"></path>	<path class="st3" d="M414.8,239.7l1.4-6.2l6.1,1.3c1.7,0.4,2.8,2.1,2.4,3.8l0,0l0,0c-0.4,1.7-2.1,2.8-3.8,2.4l0,0L414.8,239.7z"></path>	<path class="st3" d="M413.4,246.3l1.4-6.2l4.6,1c1.7,0.4,2.8,2.1,2.4,3.8l0,0c-0.4,1.7-2.1,2.8-3.8,2.4l0,0L413.4,246.3z"></path>	<path class="st3" d="M411.9,252.8l1.4-6.2l3.1,0.7c1.7,0.4,2.8,2.1,2.4,3.8l0,0c-0.4,1.7-2.1,2.8-3.8,2.4L411.9,252.8z"></path>	<rect x="386.3" y="234.1" transform="matrix(0.2134 -0.977 0.977 0.2134 80.4426 571.0421)" class="st3" width="17" height="2.9"></rect>	<path class="st3" d="M417.7,227l-5.6,25.8L399,250c-3.4-0.7-5.6-4.1-4.9-7.5l0,0L397,229c0.3-1.5,1.2-2.7,2.5-3.5c0,0,0,0,0.1,0  s0.1-0.1,0.2-0.1c2.5-1.3,4.8-3.1,6.7-5.2l6.3-6.8c1.2-1.3,3.2-1.4,4.5-0.2l0,0c0.6,0.6,1,1.4,1,2.2s-0.3,1.7-0.8,2.3l-7.2,7.7  L417.7,227z"></path>			<rect x="382.1" y="234.3" transform="matrix(0.213 -0.9771 0.9771 0.213 79.7385 569.2696)" class="st2" width="22.3" height="1.6"></rect>			<rect x="372.9" y="227.1" transform="matrix(0.2132 -0.977 0.977 0.2132 75.4913 561.0847)" class="st0" width="26.4" height="13.1"></rect>			<rect x="378.2" y="233.6" transform="matrix(0.2132 -0.977 0.977 0.2132 68.1211 564.8537)" class="st2" width="13.2" height="13.1"></rect>	<path class="st12" d="M386.2,244.5c-0.8-0.2-1.4-1-1.2-1.8c0.2-0.8,1-1.4,1.8-1.2c0.8,0.2,1.4,1,1.2,1.8l0,0  C387.8,244.2,387,244.7,386.2,244.5z"></path>	<path class="st0" d="M368.3,364.2c-4.9,11.8-18.5,17.4-30.4,12.5s-17.5-18.5-12.6-30.3s18.5-17.4,30.4-12.5  C367.6,338.8,373.2,352.3,368.3,364.2z"></path>	<path class="st12" d="M365.9,363.2c-4.4,10.5-16.5,15.5-27,11.2c-10.5-4.4-15.6-16.4-11.2-27c4.4-10.5,16.5-15.5,27-11.2l0,0  C365.3,340.6,370.3,352.7,365.9,363.2z"></path>	<polygon class="st6" points="353,342 351.9,341.5 353.4,337.9 354.5,338.3  "></polygon>	<rect x="330.9" y="346.9" transform="matrix(0.3847 -0.923 0.923 0.3847 -118.104 520.6118)" class="st6" width="1.2" height="4"></rect>			<rect x="338.4" y="370" transform="matrix(0.3842 -0.9232 0.9232 0.3842 -132.5143 542.5148)" class="st6" width="4" height="1.2"></rect>			<rect x="361.7" y="359.6" transform="matrix(0.3844 -0.9232 0.9232 0.3844 -110.8483 557.0703)" class="st6" width="1.2" height="4"></rect>	<path class="st13" d="M357.9,351.1l-11.3,3.5c-0.3,0.1-0.5,0.5-0.4,0.8s0.5,0.5,0.8,0.4l11.3-3.5L357.9,351.1z"></path>	<path class="st13" d="M347.4,354.9l-4.7-5.9l-1,0.8l4.7,5.9c0.2,0.3,0.6,0.3,0.9,0.1C347.5,355.6,347.6,355.2,347.4,354.9  L347.4,354.9z"></path>	<polygon class="st14" points="335.5,365.1 349,353.8 348.7,353.4 335.2,364.7  "></polygon>	<path class="st14" d="M348.1,355.8c-0.3,0.7-1.1,1.1-1.8,0.8c-0.7-0.3-1.1-1.1-0.8-1.8s1.1-1.1,1.8-0.8l0,0  C348.1,354.3,348.4,355.1,348.1,355.8z"></path>	<path class="st1" d="M354.8,336.2c-10.5-4.4-22.6,0.6-27,11.2c-4.4,10.5,0.6,22.6,11.2,27c10.5,4.4,22.6-0.6,27-11.2l0,0  C370.3,352.7,365.3,340.6,354.8,336.2z M339.3,373.4c-10-4.2-14.8-15.7-10.6-25.7c4.2-10,15.7-14.8,25.7-10.6  c10,4.2,14.8,15.7,10.6,25.7C360.9,372.8,349.3,377.6,339.3,373.4L339.3,373.4z"></path>	<polygon class="st13" points="355.8,340.8 356.7,339.5 357,339.7 356.2,341  "></polygon>	<polygon class="st13" points="358.5,342.9 358.2,342.6 359.3,341.4 359.6,341.7  "></polygon>	<polygon class="st13" points="360.5,345.1 360.3,344.8 361.5,343.8 361.7,344.1  "></polygon>	<polygon class="st13" points="362.1,347.6 361.9,347.2 363.3,346.5 363.5,346.9  "></polygon>			<rect x="363.1" y="349.7" transform="matrix(0.9543 -0.2987 0.2987 0.9543 -87.9 124.6664)" class="st13" width="1.6" height="0.4"></rect>	<polygon class="st13" points="363.8,353.3 363.7,352.9 365.3,352.7 365.3,353.1  "></polygon>	<polygon class="st13" points="363.9,356.2 363.9,355.8 365.5,355.9 365.4,356.3  "></polygon>	<polygon class="st13" points="363.5,359.2 363.5,358.8 365.1,359.1 365,359.5  "></polygon>	<polygon class="st13" points="361.1,364.6 361.3,364.3 362.7,365.1 362.4,365.4  "></polygon>	<polygon class="st13" points="359.3,366.9 359.5,366.6 360.7,367.7 360.4,368  "></polygon>	<polygon class="st13" points="357.1,368.9 357.4,368.7 358.3,369.9 358,370.2  "></polygon>	<polygon class="st13" points="354.5,370.5 354.9,370.3 355.6,371.7 355.3,371.9  "></polygon>	<polygon class="st13" points="351.8,371.6 352.2,371.5 352.6,373 352.3,373.1  "></polygon>			<rect x="349" y="372.2" transform="matrix(0.9916 -0.1291 0.1291 0.9916 -45.2304 48.2046)" class="st13" width="0.4" height="1.6"></rect>	<polygon class="st13" points="345.9,372.3 346.3,372.3 346.2,373.9 345.8,373.9  "></polygon>	<polygon class="st13" points="343,371.9 343.3,371.9 343,373.5 342.6,373.4  "></polygon>	<polygon class="st13" points="337.5,369.5 337.8,369.7 337,371.1 336.7,370.9  "></polygon>	<polygon class="st13" points="335.2,367.7 335.5,368 334.4,369.1 334.1,368.8  "></polygon>	<polygon class="st13" points="333.2,365.5 333.4,365.8 332.2,366.8 332,366.4  "></polygon>	<polygon class="st13" points="331.6,363 331.8,363.3 330.4,364 330.2,363.7  "></polygon>	<polygon class="st13" points="330.5,360.2 330.6,360.6 329.1,361.1 329,360.7  "></polygon>	<polygon class="st13" points="329.9,357.3 330,357.7 328.4,357.9 328.4,357.5  "></polygon>	<polygon class="st13" points="329.8,354.3 329.8,354.7 328.2,354.7 328.3,354.3  "></polygon>	<polygon class="st13" points="330.2,351.4 330.2,351.8 328.6,351.4 328.7,351.1  "></polygon>	<polygon class="st13" points="331,345.4 331.3,345.1 332.6,346 332.4,346.3  "></polygon>	<polygon class="st13" points="334.4,343.6 334.1,343.9 333,342.9 333.3,342.6  "></polygon>	<polygon class="st13" points="336.6,341.6 336.3,341.9 335.4,340.6 335.7,340.4  "></polygon>	<polygon class="st13" points="338.1,338.9 338.4,338.7 339.1,340.1 338.8,340.3  "></polygon>	<polygon class="st13" points="341.9,339 341.5,339.1 341.1,337.6 341.4,337.5  "></polygon>			<rect x="344.3" y="336.8" transform="matrix(0.992 -0.1265 0.1265 0.992 -39.9391 46.2915)" class="st13" width="0.4" height="1.6"></rect>	<polygon class="st13" points="347.8,338.3 347.4,338.3 347.5,336.7 347.9,336.7  "></polygon>	<polygon class="st13" points="350.7,338.7 350.4,338.6 350.7,337.1 351.1,337.2  "></polygon>	<path class="st6" d="M351.2,345.4l0.7-1.7c0.4,0.2,0.7,0.6,0.8,1l0.4-0.2c-0.2-0.5-0.6-0.9-1-1.2l0.3-0.6l-0.3-0.1l-0.3,0.6  c-0.7-0.3-1.5-0.1-1.9,0.6l0,0c-0.3,0.8,0.3,1.3,0.9,1.8l-0.8,1.9c-0.5-0.2-0.8-0.7-1-1.2l-0.4,0.2c0.2,0.6,0.6,1.1,1.2,1.3  l-0.2,0.6l0.3,0.1l0.2-0.6c0.7,0.4,1.5,0.1,1.9-0.6v-0.1C352.4,346.5,351.8,345.9,351.2,345.4z M350.9,345.2  c-0.5-0.4-0.8-0.7-0.6-1.2c0.2-0.5,0.8-0.7,1.3-0.4L350.9,345.2z M350.3,347.6l0.7-1.8c0.5,0.4,0.9,0.8,0.6,1.3  C351.5,347.5,351.1,347.9,350.3,347.6L350.3,347.6z"></path>	<path class="st6" d="M358.5,361.7c-0.5,0.3-1.1,0.3-1.6,0.1c-0.8-0.3-1.3-1.2-1.2-2.1l2.2,0.9l0.1-0.3l-2.3-0.9  c0-0.1,0.1-0.2,0.1-0.3c0-0.1,0.1-0.2,0.2-0.3l2.2,0.9l0.1-0.3l-2.2-0.9c0.6-0.7,1.5-1,2.3-0.6c0.5,0.2,0.9,0.7,1,1.2l0.4-0.1  c-0.2-0.7-0.7-1.2-1.3-1.5c-1-0.5-2.2-0.1-2.9,0.8l-0.4-0.2l-0.1,0.3l0.3,0.1c-0.1,0.1-0.1,0.2-0.2,0.3c0,0.1-0.1,0.2-0.1,0.3  l-0.3-0.1l-0.1,0.3l0.4,0.2c-0.2,1.1,0.4,2.2,1.5,2.6c0.6,0.3,1.4,0.2,2-0.1L358.5,361.7z"></path>	<path class="st6" d="M343.3,367.8c-0.3,0.1-0.5,0.1-0.8,0c-0.4-0.2-0.5-0.5-0.9-0.7c-0.1-0.1-0.3-0.1-0.4-0.1  c0.4-0.1,0.7-0.3,0.9-0.7l0.8,0.3l0.1-0.3l-0.8-0.3c0-0.2,0-0.4-0.1-0.6l1.1,0.5l0.1-0.3l-1.3-0.5c-0.1-0.3-0.1-0.6,0-0.9  c0.2-0.5,0.9-0.8,1.4-0.5c0,0,0,0,0.1,0c0.4,0.2,0.7,0.5,0.7,1l0.4-0.1c-0.1-0.6-0.4-1-1-1.2c-0.7-0.4-1.6-0.1-2,0.7l0,0  c-0.1,0.3-0.1,0.6,0,0.9l-0.5-0.2l-0.1,0.3l0.7,0.3c0.1,0.2,0.1,0.4,0.1,0.7l-1.1-0.5l-0.1,0.3l1.1,0.5l0,0  c-0.3,0.5-0.8,0.8-1.4,0.7v0.4c0.3,0,0.6,0,0.9,0.1c0.6,0.2,0.5,0.6,1.1,0.8c0.3,0.1,0.7,0.2,1,0L343.3,367.8z"></path>	<polygon class="st6" points="339.3,349.5 338.8,349.3 336.4,350.9 335.8,348.1 335.3,347.9 336,350.8 334.4,350.2 334.3,350.5   336.1,351.2 335.7,352 334,351.3 333.9,351.5 335.6,352.3 335.3,353.1 335.7,353.3 336,352.4 337.8,353.1 337.9,352.9 336.1,352.1   336.5,351.4 338.2,352.1 338.3,351.8 336.8,351.2  "></polygon>	<path class="st6" d="M277.9,209.4c-16.4,0-29.7,10.6-29.7,23.6c0,5.6,2.4,10.5,6.4,14.7c1.6,1.8,2.5,4.2,2.4,6.6  c0,2.8-1.1,5.4-3.1,7.3c4.6-0.7,8.5-3.5,10.8-7.4c4.2,1.6,8.6,2.4,13.1,2.4c16.4,0,29.7-10.6,29.7-23.6  C307.6,220,294.3,209.4,277.9,209.4z"></path>	<path class="st12" d="M270.1,233c0,1.6-1.3,2.9-3,2.9c-1.6,0-3-1.3-3-2.9s1.3-2.9,3-2.9l0,0C268.8,230.1,270.1,231.4,270.1,233  L270.1,233z"></path>	<path class="st12" d="M280.9,233c0,1.6-1.3,2.9-3,2.9c-1.6,0-3-1.3-3-2.9s1.3-2.9,3-2.9l0,0C279.5,230.1,280.9,231.4,280.9,233  L280.9,233z"></path>	<path class="st12" d="M291.6,233c0,1.6-1.3,2.9-3,2.9c-1.6,0-3-1.3-3-2.9s1.3-2.9,3-2.9l0,0C290.3,230.1,291.6,231.4,291.6,233  L291.6,233z"></path>	<path class="st4" d="M378.6,157.2c-10-6.5-21.7,3.5-18.5,12.6c-3.2-9.1-18.6-9.6-22.3,1.8c-3.9,11.7,8.9,25.4,32.7,27.5  C387.7,182.5,389,163.9,378.6,157.2z"></path>	<polygon class="st4" points="371,119.4 372.4,143.7 441.9,105.6  "></polygon>	<polygon class="st1" points="377.2,124.2 400.2,141.5 441.9,105.6  "></polygon>	<polygon class="st1" points="357,108.9 371,119.4 441.9,105.6  "></polygon>	<polygon class="st10" points="372.4,143.7 377.2,124.2 390.2,133.9  "></polygon>	<path class="st0" d="M315.4,77.8l-1.4-4.5l-3.7-0.1l0,0c-0.5-0.9-1.1-1.8-1.7-2.7l1.5-3.3l-3.5-3.2l-3.2,1.7l0,0  c-0.5-0.3-0.9-0.6-1.4-0.8c-0.5-0.3-1-0.5-1.5-0.7l0,0l-0.4-3.6l-4.6-1.1l-1.9,3.1c-1.1,0-2.1,0-3.2,0.1l0,0l-2.2-3l-4.5,1.4  l-0.1,3.7l0,0c-0.9,0.5-1.9,1.1-2.7,1.7l-3.3-1.5l-3.2,3.5l1.7,3.2l0,0c-0.3,0.5-0.6,0.9-0.8,1.4c-0.3,0.5-0.5,1-0.7,1.5l0,0  l-3.7,0.4l-1.1,4.6l3.1,1.9c0,1.1,0,2.1,0.1,3.2l0,0l-3,2.1l1.4,4.5l3.7,0.1l0,0c0.5,0.9,1.1,1.8,1.7,2.7l-1.5,3.3l3.5,3.2l3.2-1.7  l0,0c0.5,0.3,0.9,0.6,1.4,0.8c0.5,0.3,1,0.5,1.5,0.7l0.4,3.6l4.6,1.1l1.9-3.1c1.1,0,2.1,0,3.2-0.1l0,0l2.1,3l4.5-1.4l0.1-3.7l0,0  c0.9-0.5,1.9-1.1,2.7-1.7l3.3,1.5l3.2-3.5l-1.7-3.2l0,0c0.3-0.5,0.6-0.9,0.8-1.4c0.3-0.5,0.5-1,0.7-1.5l0,0l3.6-0.4l1.1-4.6  l-3.1-1.9c0.1-1.1,0-2.1-0.1-3.2l0,0L315.4,77.8z M297.9,98.6c-9.1,2.8-18.7-2.3-21.5-11.4s2.3-18.7,11.4-21.5s18.7,2.3,21.5,11.4  C312.1,86.2,307,95.9,297.9,98.6L297.9,98.6z"></path>	<path class="st12" d="M308,77.6c2.6,8.4-2.1,17.2-10.5,19.8c-8.4,2.6-17.3-2.1-19.8-10.5c-2.6-8.4,2.1-17.2,10.5-19.8  C296.6,64.5,305.4,69.2,308,77.6L308,77.6z"></path>	<path class="st15" d="M293.2,96c0.1,0,0.2-0.1,0.3-0.1c-0.1-0.1-0.4,0-0.6,0c0,0-0.5-0.1-0.4,0.1c0,0,0.1,0,0.2,0  c0,0.1-0.1,0.1,0,0.1c0,0-0.6-0.1-0.1-0.3c-0.5-0.2,0-0.2-0.2-0.4c-0.1-0.1,0.2-0.4,0-0.4c-0.1,0-0.2,0-0.3,0  c-0.2-0.1-0.1-0.3,0-0.3v-0.4l-0.4-0.3c0.1-0.1,0.5,0.1,0.5-0.2c0-0.1-0.2-0.3-0.2-0.3c0.2-0.1,1.2-0.3,0.9-0.8  c-0.1-0.1-0.6-0.3-0.6-0.4c0.2,0,0.5,0.1,0.6,0s0.3,0,0.4-0.2c0,0,0.2-0.4,0.1-0.4s-0.1,0.1-0.1,0.2c-0.1-0.1,0-0.2,0.1-0.3  c0,0,0,0,0.1,0.1c0-0.2,0.3-0.9,0.3-0.9c0.2-0.4-0.2-0.7,0-1s0.4-0.5,0.6-0.7c0.1-0.1,0.3-0.3,0.4-0.3c0.6,0,0.3-0.6,0.5-1  s-0.4-1.7-0.2-1.9c0.2-0.3,0.4-0.7,0.5-1.1c0.1-0.3,0.1-0.6-0.1-0.9c-0.3-0.4-0.3-0.1-0.7-0.2c-0.3-0.1-0.6-0.3-0.9-0.3  c-0.2,0.1-0.4,0.1-0.6,0.2c-0.1,0-0.3-0.1-0.4,0.1c0,0-0.2,0.1-0.1,0.1c0,0-0.1-0.2-0.2-0.3c-0.2-0.1-0.4-0.1-0.6,0  c-0.3,0-0.3,0.4-0.5,0c-0.3,0-0.6-0.2-0.5-0.3c0,0-0.6-0.7-0.7-0.6c-0.1-0.3-1-0.3-1.2-0.2c-0.2,0.2-0.6,0-0.7,0  c-0.2-0.1-0.2-0.3-0.5-0.3c-0.1,0-0.3,0.1-0.3-0.1s-0.5-0.1-0.6-0.2c0.1,0,0.1,0,0.2-0.1c-0.2,0.1-0.4,0.1-0.5,0.2  c-0.2,0.3-0.4,0-0.7,0.2c-0.3,0.2-0.1,0-0.4-0.1c0.1,0-0.5-0.1-0.4-0.1c-0.1,0,0.1,0.2,0,0.2c-0.2,0.1-0.3,0.2-0.1,0.4  c0.3,0.3-0.4,0.3-0.1,0c0-0.1-0.1-0.6,0-0.6c-0.2,0.2-0.4,0.4-0.6,0.6c-0.3-0.2-0.3,0.9-0.4,0.9c-0.1-0.2-0.4-0.3-0.6-0.3  s-0.2,0.5-0.5,0.3c-0.5-0.3-0.6-1-0.5-1.5c0-0.2-0.8-0.1-0.9,0.1c-0.2,0.2-0.1-0.4-0.1-0.3c0-0.2,0-0.4,0.1-0.4  c0.1-0.3,0.1-0.6,0.1-0.9c-0.2-0.3-0.6,0.4-0.6,0.6c0,0.1-0.1,0.2-0.1,0.4c0,0.1-0.2,0-0.2,0.1c-0.2,0.2-0.5,0.2-0.6-0.1  c-0.1-0.4-0.5-1.2-0.1-1.6c0.1-0.1,0-0.5,0.1-0.7c0,0,0.4-0.4,0.3-0.5c0.1,0.1,0.4-0.2,0.5-0.1s0.2,0.1,0.4,0v-0.2h-0.2  c0-0.1,0.4-0.2,0.5-0.2c0.2,0,0.4,0.1,0.5-0.1c0.2-0.2,0.4,0.9,0.5,0.9s0.1,0.2,0.2,0.1s-0.2-1.4,0-1.8c0.2-0.3,0.4-0.5,0.6-0.8  c0.1-0.1,0.3-0.3,0.3-0.4c0,0-0.1-0.1-0.1,0c0-0.1,0.1-0.1,0.1-0.2s-0.1-0.1-0.1-0.1v-0.2l0,0c0.1,0-0.1-0.1-0.1-0.1  c0.2,0,0-0.2,0.2-0.3c-0.1,0.1,0,0.2,0,0.3c0.1,0.2,0.1-0.3,0.1-0.3c0.2-0.2,0.4-0.3,0.5-0.5h-0.1c0.2-0.1,0.4-0.2,0.5-0.3  c-0.1-0.2,0-0.4,0.2-0.5c0.3-0.2,0.6-0.4,0.9-0.7c0,0.1,0,0,0.1,0c-0.2-0.2-0.5,0.7-0.3,0.5s0.9-0.6,1-0.8l-0.1-0.1  c-0.2,0.1-0.1,0.3-0.4,0.4c-0.4,0.1-0.3-0.2-0.4-0.3c-0.1,0-0.1,0-0.2,0c0,0,0.5-0.3,0.2-0.3c-0.5,0-0.6,0.6-1,0.7  c0.2-0.3,0.5-0.7,0.8-0.9c0.3-0.2,0.9-0.1,1.1-0.5c0.2-0.3,0.5-0.2,0.5-0.6c0-0.1-0.3-0.1-0.3-0.1s0.1,0,0.1-0.1  c-0.5-0.1-0.6-0.2-0.8-0.7c-0.2,0.2-0.8,0.8-0.6,0.1c-0.2,0-0.7-0.2-0.8,0.1c0,0.2-0.1,0.3-0.2,0.5c-0.2,0.2,0,0.1,0,0.3  c-0.1,0.4-0.5,0.4-0.6,0.8c-0.1,0.2-0.1,0.3-0.2,0.5c-0.1,0.1-0.3,0-0.2-0.2c0.1,0,0.1,0,0.2,0c0-0.1-0.1,0-0.1,0  c0-0.1,0.1-0.2,0.1-0.3c0,0-0.5,0.1-0.5-0.1s-0.3,0-0.4-0.1c0.1-0.3,0.2-0.6,0.5-0.8c0.1-0.1,0.8-0.8,1-0.7c0,0.1-0.1,0.1-0.1,0.2  c0.2,0,0.4-0.1,0.6-0.2c0,0-0.2-0.2-0.2-0.3c0.1,0,0.2,0,0.3-0.1c0.1-0.1,0.3-0.1,0.3-0.3c0-0.1,0.4-0.4,0.5-0.4  c0.7,0.1-0.6,0.9-0.6,0.9c0.1,0.1,0.4-0.2,0.5,0c0,0.1,0.5,0.1,0.5,0c0,0-0.2-0.1-0.2-0.2c0.5,0.1,0.4,0,0.3-0.3  c-0.2-0.3,0.3-0.1,0.3-0.1c0.1,0,0.3-0.2,0.3-0.3c-0.1,0-0.3,0-0.4-0.1s0.2-0.2,0.1-0.2c-0.2-0.1-0.4,0-0.4-0.2  c-0.1,0-0.2,0-0.2,0.1h0.1c-0.1,0.1-0.1,0.1-0.2,0.1l0.1-0.1c-0.2,0-0.3,0.2-0.5,0.3c0-0.1,0.1-0.1,0.2-0.2  c-0.2,0.1-0.4,0.2-0.5,0.4c0,0,0.1,0,0.1,0.1c-0.1,0.2-0.3,0.3-0.5,0.4c0-0.1,0.1-0.1,0.2-0.3c-0.1,0-0.1,0.1-0.2,0.1  c0.1-0.1,0.2-0.3,0.3-0.4c-0.4,0.1-0.4,0.6-0.7,0.6c0-0.1,0.2-0.1,0.2-0.2c-0.1,0.1-0.5,0.5-0.6,0.4c0.3-0.2,0.5-0.5,0.8-0.7  c-0.1,0-0.1,0.1-0.2,0c0-0.1,0.1-0.1,0.1-0.1c-0.3,0.1-1,0.7-0.9,0.8c-0.1,0.1-0.2,0.2-0.3,0.2c0-0.1,0.2-0.2,0-0.2  c-0.2,0.2-0.5,0.4-0.7,0.6c-0.5,0.4-1,0.9-1.4,1.4c-0.7,0.8-1.3,1.7-1.8,2.7s-0.9,2-1.1,3.1c0.1,0.3,0,0.6,0,0.8  c0,0.2,0.1,0.5,0,0.7c0,0.5,0.1,0.9,0.2,1.4c0.1-0.1-0.3-2.3,0-2.3c0.1,0.3,0.1,0.7,0.1,1c-0.1,0.5,0.4,0.9,0.4,1.4  c0,0.1,0,0.2,0,0.3c-0.2,0.2,0.2,0.4,0.2,0.6c0.2,0.2,0.5,0.3,0.8,0.4s0.2-0.2,0.5-0.2c0.2,0,0.4,0.3,0.5,0.4c0.2,0.2,0.7,0,0.8,0  c0.1,0.1,0.2,0.4,0.4,0.4c0,0-0.1-0.2,0-0.2c0.1-0.1,0.3,0.1,0.2,0.2c-0.1,0-0.2,0-0.2,0s0.1,0.5,0.2,0.4v-0.1  c0.2,0,0.3,0.3,0.4,0.3c0.2,0,0.4,0.2,0.6,0.2c0.1,0,0-0.5,0.2-0.6s0.4,0.4,0.6,0.5s0,0.6,0.2,0.7s-0.2,0.6-0.2,0.7  s-0.2,0.3-0.2,0.3c0,0.1,0,0.3,0,0.4c0,0.3,0,0.4,0.3,0.4c0,0-0.1,0.9,0.1,1c0.5,0.3,1,0.7,1.3,1.1c0.4,0.5,0.9,0.8,1.5,0.9  s1,0.5,1.2,1c0.1,0.4,0.2,0.7,0.4,1c0.2,0.2,0.1,0.6,0.3,0.8c0.1,0.1,0,0.2,0.1,0.3c0.1,0.1,0.2,0.3,0.3,0.4  c0.1,0.2,0.2,0.5,0.2,0.8c0,0.1,0,0.2,0,0.3c0.3,0.3,0.5,0.6,0.7,1c0,0.1,0.2-0.1,0-0.2c0.2-0.2,0.4,0.4,0.4,0.4  c-0.3,0-0.1,0,0,0.3c0.1,0.2,0,0.1,0.1,0.1c0.3,0,0.1,0.2,0.2,0.3c0.3,0.2,0.5,0.3,0.8,0.5C292.3,96.2,292.8,96,293.2,96  C293.2,95.9,293.1,96,293.2,96z M286.6,71c-0.1,0.1-0.1,0.2-0.2,0.2C286.4,71,286.5,71,286.6,71z M285.8,71.1c0,0,0.1,0,0.2,0  c0,0-0.3,0.1-0.3,0.2C285.6,71.2,285.7,71.2,285.8,71.1C285.8,71.2,285.7,71.2,285.8,71.1z M285.2,71.9  C285.2,71.9,285.1,72,285.2,71.9C285.2,71.9,285.1,71.9,285.2,71.9L285.2,71.9z M284.5,71.2L284.5,71.2  C284.5,71.3,284.5,71.3,284.5,71.2C284.5,71.2,284.5,71.3,284.5,71.2z M284.4,72.7C284.3,72.7,284.6,72.6,284.4,72.7L284.4,72.7  L284.4,72.7z M284.4,72.1c-0.3,0.5-0.1,0-0.2,0.2l0,0C284.2,72.3,284.4,72.1,284.4,72.1C284.4,72.2,284.3,72.2,284.4,72.1  L284.4,72.1z M284.1,71.7c0,0.1,0,0.1-0.2,0.1C284,71.8,284.1,71.8,284.1,71.7L284.1,71.7z M285.5,69.6L285.5,69.6  C285.5,69.5,285.5,69.6,285.5,69.6C285.5,69.7,285.6,69.6,285.5,69.6L285.5,69.6z M285.8,69.4c0,0.1-0.1,0.1-0.2,0.1  C285.6,69.3,285.7,69.3,285.8,69.4L285.8,69.4z M284.1,70l0.1-0.1C284.3,70,284,70.1,284.1,70L284.1,70L284.1,70z M284,70  C284.1,70,284.1,70,284,70L284,70C284,69.9,284,70,284,70L284,70z M283,74.4c0,0-0.6,0.5-0.6,0.3c0,0.1,0.2-0.3,0.1-0.2  c0.2-0.1,0.4-0.2,0.6-0.2C283.1,74.3,283,74.4,283,74.4C282.8,74.5,283,74.4,283,74.4L283,74.4z M283.4,73.9  c0.6-0.1-0.3,0.3-0.4,0.3C283.1,74,283.2,73.9,283.4,73.9C283.4,73.9,283.2,73.9,283.4,73.9L283.4,73.9z M282.2,70.5  c0.1-0.1,0.3-0.3,0.4-0.4C282.6,70.3,282.4,70.4,282.2,70.5L282.2,70.5z M283.2,73.5C283.2,73.5,283.1,73.5,283.2,73.5  C283.1,73.5,283.2,73.5,283.2,73.5L283.2,73.5L283.2,73.5z M283.1,73.9L283.1,73.9L283.1,73.9L283.1,73.9z M282.9,73.6  c0.2,0,0.2,0.4,0,0.2c0,0.2-0.1,0.4-0.3,0.5c0-0.1,0-0.1,0-0.2c0,0-0.1,0.1-0.2,0.1c0,0.1,0.2-0.7,0-0.4c-0.2,0.4-0.4,0.7-0.6,1  c-0.1,0,0.1-0.7,0.1-0.7C282.1,73.8,282.5,73.6,282.9,73.6L282.9,73.6z M281.7,71.2l0.2-0.2c0.1,0.1-0.3,0.3-0.3,0.3  C281.6,71.2,281.7,71.2,281.7,71.2C281.8,71.1,281.7,71.2,281.7,71.2L281.7,71.2z M282.3,73c0,0,0,0.2-0.1,0.2  C282.1,73.1,282.3,72.9,282.3,73L282.3,73L282.3,73z M281.4,71.7c0,0,0.3-0.3,0.4-0.2C281.6,71.6,281.5,71.7,281.4,71.7L281.4,71.7  z M281.4,72.1C281.4,72.2,281.4,72.2,281.4,72.1C281.4,72.2,281.4,72.2,281.4,72.1L281.4,72.1z M281.4,73.1c0-0.1,0.1-0.3,0-0.3  c0,0-0.2,0-0.1,0c0,0,0.3-0.3,0.3-0.2c0.1,0.1-0.2,0.6-0.3,0.7C281.4,73.1,281.4,73.1,281.4,73.1C281.5,73,281.4,73.1,281.4,73.1  L281.4,73.1z M281.8,73.6c0.3-0.2,0.3-0.4,0.6-0.2c0.1,0.1,0.2,0.3,0,0.3c0,0-0.5,0.1-0.4,0c-0.1,0.1-0.3,0.2-0.4,0.2  C281.6,73.7,281.7,73.6,281.8,73.6C281.9,73.5,281.7,73.6,281.8,73.6L281.8,73.6z M281.2,73.1C281.2,73.2,281.2,73.2,281.2,73.1  C281.2,73.2,281.2,73.2,281.2,73.1L281.2,73.1z M278.9,81.1C278.8,81.1,279,81,278.9,81.1L278.9,81.1L278.9,81.1z M281.1,81.8  C281,81.8,281.2,81.7,281.1,81.8L281.1,81.8L281.1,81.8z M285.8,81.9C285.7,81.9,285.9,81.9,285.8,81.9L285.8,81.9L285.8,81.9z   M290.3,94.2C290.2,94.2,290.4,94.1,290.3,94.2L290.3,94.2L290.3,94.2z M288.7,87.9C288.7,87.8,288.8,87.9,288.7,87.9  C288.7,87.8,288.7,87.9,288.7,87.9L288.7,87.9z M290,91.7C289.9,91.8,290.1,91.7,290,91.7C290,91.8,290,91.7,290,91.7L290,91.7z   M291.7,95.8C291.6,95.8,291.6,95.8,291.7,95.8L291.7,95.8L291.7,95.8L291.7,95.8z M292.3,95.9L292.3,95.9  C292.4,95.8,292.4,95.9,292.3,95.9L292.3,95.9L292.3,95.9z M290.7,94.7L290.7,94.7L290.7,94.7L290.7,94.7z M284.3,69.1L284.3,69.1  L284.3,69.1L284.3,69.1z M279.9,73.1L279.9,73.1L279.9,73.1z M280,72.9L280,72.9z M306.9,74.9L306.9,74.9c-0.6-1-1.2-2-2-2.9  c-2.2-2.6-5.3-4.5-8.7-5.2c-0.3-0.1-0.6-0.1-0.9-0.2c-0.1,0-0.6,0-0.7-0.1l0.3,0.1c-0.2,0-0.4,0-0.7-0.1l0,0  c-0.3-0.1-1.3-0.1-1.4,0.2c0.3,0.1,0.6,0.3,0.9,0.5c0.1,0.2,0.6,0.4,0.9,0.4c0.4,0,0.1-0.1,0.2-0.2s0.2,0.1,0.3,0l0,0l-0.1-0.1  c0,0,0.9,0.5,0.9,0.3c-0.2-0.2-0.4-0.4-0.6-0.5s-0.5,0-0.7-0.1s-0.4-0.2-0.6-0.3c0.5-0.1,1.3,0.7,1.6,0.2c-0.1,0-0.2-0.1-0.2-0.1  c0.1,0,0.5,0,0.4,0.2c-0.4,0,0.4,0.2,0.4,0.2c-0.1,0-0.1,0-0.2,0c0.1,0.1,0.5,0.1,0.6,0.3c-0.2,0.1-0.2-0.1-0.3,0.1  c0,0.1-0.2,0.1-0.3,0.2c-0.2,0.1-0.7-0.2-0.9-0.3c0.2,0.2,0.4,0.3,0.6,0.4c0.2,0-0.1,0.2-0.1,0.3h0.1h-0.1c0,0.1,0.1,0.3,0.1,0.4  c0.3,0.2-0.2,0.3-0.2,0.3c0.1,0,0.1,0,0.2,0.1c-0.1,0-0.3,0.1-0.4,0.2c0.2,0,1.5,0.2,1.3,0.6c0,0.1-0.8,0.2-1,0.3  c-0.3,0.1,0.1,0.3,0.1,0.3c0.1,0.2,0.3,0.2,0.4,0.5c0,0.2,0.2,0.1,0.3,0.3c0.1,0.1,0.1,0.1,0.2,0.1c0.3,0,0.2-0.1,0.5,0  c0.2,0.1,0.2-0.2,0.3-0.2c0.4-0.2,0-0.1,0.2-0.2s-0.2-0.4-0.2-0.5s-0.1-0.2,0-0.3c0.2-0.1-0.1-0.3-0.2-0.3c-0.1-0.2,0.7,0,0.4-0.5  c0.4,0.1,0.9,0.2,1.3,0.3c0.2,0,0.5,0.1,0.7,0.3c0.2,0.2-0.2,0.2-0.2,0.3c0,0.1,0.5,0.1,0.5,0.1c0-0.1-0.1-0.2-0.2-0.3  c-0.1-0.2-0.4-0.2-0.4-0.4c0.1,0,0.2,0,0.2,0c-0.3-0.2-0.7-0.1-1-0.2c-0.2-0.1-0.4-0.1-0.6-0.2c0,0-0.4-0.3-0.2-0.2  c0.4,0.1,0.7,0.2,1.1,0.3c0.2,0,0.4,0.1,0.6,0.3c0.2,0.1,0.4,0.3,0.7,0.4c0.2,0.1,0.3,0.1,0.5,0.2c-0.1-0.1-0.2-0.2-0.3-0.3  c-0.1-0.1-0.5-0.1-0.5-0.3c0.1,0,0.1-0.1,0.2-0.1c-0.1,0,0.1-0.2,0.1-0.1c-0.5-0.1-0.9-0.4-1.2-0.8c0.1,0,0.2,0.1,0.2,0  c0,0-0.1-0.1-0.1-0.2c0,0,0.4,0.2,0.4,0.3c-0.1,0-0.2,0-0.2,0c0.1,0.1,0.2,0.1,0.3,0.2v-0.1c0.4,0.1,0.8,0.2,1.1,0.5  c-0.1,0-0.4-0.1-0.5,0c0,0.1,0,0.1,0.1,0.2c0,0-0.1,0-0.1,0.1l0.1,0.1l-0.1,0.1c0.3,0.3,0.7,0.4,1.1,0.5l-0.1-0.1  c0-0.1,0.2,0.1,0.3,0.1c0,0-0.1-0.1,0-0.1c0.1-0.1,0.8,0.7,0.9,0.8c0.4,0.3,0.1,0.1,0,0.3c0,0,0,0.1,0,0.2c-0.3,0-0.6,0-0.9-0.1  c-0.4-0.1,0.3,0.6,0.1,0.6c-0.1,0-0.2-0.1-0.4-0.1c-0.2,0-0.3-0.2-0.6-0.2c-0.2,0-0.8,0.1-0.8-0.2c0-0.3-0.4-0.4-0.5-0.4  c-0.3,0.1-0.6,0.2-0.8,0.3c-0.2,0.1-0.5,0.3-0.5,0.5c-0.1,0.4-0.6,0.1-0.8,0.2c-0.1,0.1,0.1,0.3,0.1,0.4c0,0.2-0.2,0.2-0.2,0.4  c0,0.3,0.3,0.5,0.3,0.8c0,0.2-0.4,0.4-0.3,0.6c0,0.1,0,0.2,0,0.3c-0.2,0.2,0.1,0.3,0,0.5c-0.4,0.8,0.6,1.2,0.7,1.9  c0,0.4,0,0.5,0.3,0.8c0.1,0.1,0.2,0.7,0.5,0.3c0.1,0.3,0.6,0.3,0.8,0.6c0.2,0.4,0.7,0.4,1,0.6c0.1,0.1,0.3,0.1,0.5,0.2  c0.3,0.1,0.4-0.2,0.6-0.3c0.2-0.1,0.4-0.2,0.7-0.1c0.1,0,0.8-0.9,1.1-0.8c0.2,0,0.3,0.2,0.4,0.4c0.2,0.2,0.3-0.2,0.5-0.2  c0.3,0,0.7,1.1,0.5,1.3c-0.1,0.2,0.4,0.6,0.5,0.7c0.3,0.3,0.5,0.7,0.6,1.2c0,0.3,0.3,0.7,0.2,1c-0.1,0.3-0.1,0.6-0.1,0.9  c-0.1,0.8,0.5,1.6,0.4,2.5c0,0.4,0,0.9,0.1,1.3c0,0.3-0.2,0.8,0,1c0.1-0.2,0.4-0.3,0.6-0.5c0.4-0.4,0.4-0.9,0.7-1.4  c0.1-0.2,0.2-0.5,0.2-0.8c0-0.2,0.2-0.4,0.2-0.7c0.1-0.6,0.1-1.2,0.2-1.8c0.1-1.2-0.1-2.5-0.3-3.7C308,77.4,307.5,76.1,306.9,74.9  L306.9,74.9z M304.9,72.3c-0.1-0.1-1.3-1.1-1.2-1.2c0.1-0.1,2.8,2.4,2.7,3C305.9,73.4,305.4,72.9,304.9,72.3  C304.9,72.3,305,72.4,304.9,72.3L304.9,72.3z M307.3,77.4c-0.1-0.1,0-0.2,0-0.3C307.3,77.3,307.2,77.4,307.3,77.4L307.3,77.4z   M307.3,77.9L307.3,77.9C307.3,77.9,307.3,77.9,307.3,77.9L307.3,77.9z M308.2,82L308.2,82C308.1,82,308.2,81.9,308.2,82  C308.2,81.9,308.2,81.9,308.2,82C308.2,82,308.2,81.9,308.2,82L308.2,82z M307.8,80.3c0-0.1,0-0.2,0.1-0.3  C307.9,80.2,307.8,80.2,307.8,80.3L307.8,80.3z M307.7,79.6c-0.1-0.3-0.2-0.6-0.2-0.8c0.1,0.4,0.3,0.9,0.4,1.4  C307.8,79.9,307.8,79.7,307.7,79.6C307.7,79.5,307.8,79.6,307.7,79.6L307.7,79.6z M308.2,80.3c0.1,0.4,0.2,0.8,0.1,1.2  C308.2,81.1,308.3,80.7,308.2,80.3L308.2,80.3C308.2,80.4,308.2,80.3,308.2,80.3L308.2,80.3z M307.7,77.8c0,0.3,0.1,0.4,0,0.6  c-0.1-0.2-0.3-0.6-0.1-0.8C307.6,77.7,307.6,77.7,307.7,77.8C307.7,77.9,307.6,77.7,307.7,77.8L307.7,77.8z M302.5,94.8  c0,0-1.7,1.2-1.9,1.3c-0.8,0.4-1.5,0.8-2.3,1.1c-1.6,0.6-3.2,0.9-4.8,0.9c0.2,0,0.4,0,0.7-0.1c-0.2-0.1-0.4,0.1-0.7,0  c0.7-0.1,1.2-0.3,1.8-0.4c-0.1-0.1-0.6,0-0.7-0.1c0.1,0,0.5-0.2,0.5-0.2c0.1-0.2-0.3,0-0.3-0.2c0,0,0.2,0,0.2-0.1s0-0.2,0-0.2  c0.2-0.2,0.5-0.3,0.8-0.4c-0.1,0.1-0.2,0-0.1,0.2c-0.1,0-0.3,0.1-0.3,0.2c0.1,0.1,0.3,0.2,0.4,0.3c0.1,0.1,0.5,0.1,0.5,0.3  c0.1,0.3,1.6-0.2,1.8-0.3c0.5-0.2,1-0.6,1.5-0.8c0.3-0.2,0.6-0.3,0.9-0.5c0.2-0.1,0.5-0.3,0.7-0.4  C301.1,95.5,302.2,94.8,302.5,94.8C302.5,94.8,302.4,94.8,302.5,94.8z M308.6,83.7c0-0.2,0-0.3,0-0.5  C308.7,83.4,308.6,83.6,308.6,83.7z M308.7,83L308.7,83L308.7,83z M286,68.3c-0.1,0-0.2,0-0.3,0.1c0-0.1,0.3-0.1,0.1-0.2  c0.4-0.3,0.9-0.6,1.4-0.7s0.9-0.4,1.3-0.4c0.2,0,0.3-0.1,0.5-0.1s0,0.2,0.2,0.2c0.1,0,0.4,0.2,0.5,0.1c0,0.2-0.1,0.1,0,0.2l0.2,0.1  c-0.2,0.1-0.3,0.1-0.5,0.1c0,0,0,0.1,0.1,0.1s0.3-0.1,0.4-0.1c-0.2,0.3-0.6,0.4-0.8,0.7c-0.1,0.2-0.4,0.2-0.6,0.4  c0,0.2,0,0.5-0.1,0.7c0,0.2-0.8,0-0.9,0c-0.2-0.1-0.6-0.5-0.3-0.7c0.4-0.3,0,0-0.2-0.1c0.1-0.2,0.2-0.2,0.4-0.2  c-0.1-0.1-0.2-0.1-0.3,0l0,0c-0.1-0.1,0.1-0.3-0.1-0.4c-0.1,0-0.5,0.2-0.6,0.1c-0.1-0.2,0.5-0.3,0.6-0.4  C286.8,67.7,286.4,68.2,286,68.3C285.9,68.3,286.1,68.3,286,68.3z M294.9,68.7c0.1,0-0.2-0.2-0.2-0.2s0.1,0,0.1-0.1  c-0.2-0.1-0.4-0.2-0.6-0.2c-0.1,0.2-0.5-0.2-0.5-0.3c0.3-0.1,0.5,0.1,0.8,0.2c0.3,0,1.2,0.2,1.3,0.4c0.1,0.1-0.6,0.3-0.6,0.4  c-0.1-0.2,0.1-0.2,0.1-0.3C295.2,68.7,294.9,68.7,294.9,68.7S295,68.7,294.9,68.7z M286.9,71.4c-0.2,0.2-0.3,0.5-0.4,0.8  c0,0,0.6-0.2,0.7-0.1c0,0.1-0.1,0.1-0.1,0.1c0.1,0,0.3-0.2,0.3-0.2v0.1c0.3,0.2,0.1-0.3,0.1-0.4c-0.2,0,0-0.3-0.3-0.1  c-0.1,0-0.2,0-0.3,0c0,0,0.2-0.3,0.2-0.4C286.9,71.3,286.9,71.4,286.9,71.4C286.8,71.5,286.9,71.4,286.9,71.4z M287.6,71.8  C287.6,71.8,287.5,71.9,287.6,71.8L287.6,71.8z M287.4,71.9C287.4,71.8,287.5,71.8,287.4,71.9C287.5,71.9,287.4,71.9,287.4,71.9  L287.4,71.9L287.4,71.9z M286.9,71.4L286.9,71.4L286.9,71.4L286.9,71.4z M286.5,72C286.5,72,286.6,72,286.5,72  C286.6,72,286.5,72,286.5,72L286.5,72z M283.2,79.9c-0.1,0.1,0.1-0.1,0-0.2c-0.2-0.2-0.9,0-1-0.2c0,0,0,0,0-0.1  c-0.3,0-0.3,0.3-0.5,0.3c0.2-0.9,1.6-0.4,2.1-0.2C283.7,79.7,283.4,79.8,283.2,79.9C283.2,79.9,283.3,79.9,283.2,79.9L283.2,79.9z   M283.9,80.1c-0.1,0,0.4-0.2,0.4-0.2c-0.1-0.1-0.1-0.2-0.3-0.2c0.1-0.3,0.7-0.2,0.9-0.2c0,0,0,0-0.1,0.1c0,0,0.5,0.2,0.2,0.2  s-0.4,0.2-0.6,0.3C284.3,80,284.1,80.2,283.9,80.1C283.9,80.1,284,80.2,283.9,80.1L283.9,80.1z M294.4,68.5c0.3,0.2,0,0.5-0.2,0.4  c-0.1-0.1-0.1-0.3-0.4-0.3l0.1-0.1C293.7,68.3,294.3,68.5,294.4,68.5C294.5,68.6,294.4,68.5,294.4,68.5L294.4,68.5z M290.5,68  c0,0,0.4-0.1,0.4-0.2c0.1,0,0.9-0.2,0.7,0c-0.2,0.2-0.5,0.4-0.7,0.2C290.8,68,290.5,68,290.5,68C290.5,67.9,290.6,68,290.5,68  L290.5,68z M298.7,69.6c0.1,0,0.4,0.2,0.4,0.3c-0.1,0.2-0.4-0.2-0.5-0.2C298.7,69.7,298.7,69.7,298.7,69.6L298.7,69.6z M285.3,68.6  c0.2-0.3,0.3-0.2,0.6-0.3C285.8,68.5,285.5,68.6,285.3,68.6C285.4,68.5,285.6,68.6,285.3,68.6L285.3,68.6z M291,66.6  c-0.2,0-0.4,0-0.6,0C290.6,66.6,290.8,66.6,291,66.6C291.1,66.6,291,66.6,291,66.6C290.8,66.6,291,66.6,291,66.6L291,66.6z   M290.4,66.7C290.4,66.7,290.3,66.7,290.4,66.7C290.3,66.7,290.4,66.7,290.4,66.7L290.4,66.7L290.4,66.7L290.4,66.7z M283.4,80.3  C283.4,80.3,283.5,80.3,283.4,80.3c0.1,0.2-0.3,0.1-0.3,0.1C283.1,80.3,283.3,80.3,283.4,80.3L283.4,80.3z M285.8,79.6  C285.8,80.1,285.1,79.4,285.8,79.6C285.8,79.6,285.7,79.5,285.8,79.6L285.8,79.6z M287.2,81.5L287.2,81.5L287.2,81.5L287.2,81.5  L287.2,81.5z M287.3,81.5c0,0,0-0.2,0.1-0.2S287.3,81.4,287.3,81.5C287.2,81.5,287.4,81.4,287.3,81.5L287.3,81.5z M284.9,68.6  c-0.1,0.1-0.3,0.1-0.4,0.2C284.6,68.7,284.7,68.6,284.9,68.6C284.8,68.8,284.9,68.6,284.9,68.6z M283.1,78.9  c-0.1-0.2-0.2-0.1-0.1-0.3C283.1,78.7,283.1,78.8,283.1,78.9C283,78.9,283.1,78.8,283.1,78.9L283.1,78.9z M281.7,86.2  C281.7,86.3,281.7,86.3,281.7,86.2c-0.1,0-0.2-0.1-0.2-0.2C281.6,86.1,281.6,86.1,281.7,86.2C281.7,86.2,281.6,86.1,281.7,86.2  L281.7,86.2z M285.7,72c0.1,0,0.3,0,0.4,0C286,72.1,285.8,72.1,285.7,72L285.7,72z M298.7,69.6L298.7,69.6c0,0-0.3-0.1-0.3-0.2  C298.4,69.3,298.6,69.5,298.7,69.6L298.7,69.6z M301.6,70.1c-0.1,0-0.2,0-0.2-0.1C301.5,70,301.6,70,301.6,70.1  C301.6,70,301.6,70.1,301.6,70.1C301.5,70,301.6,70.1,301.6,70.1L301.6,70.1z M285.1,68.7H285c0-0.1,0.2-0.1,0.2-0.2  C285.3,68.5,285.2,68.7,285.1,68.7C285.1,68.6,285.2,68.7,285.1,68.7L285.1,68.7z M284.7,68.9c-0.1,0.1-0.2,0.2-0.3,0.3  C284.5,69,284.6,68.9,284.7,68.9L284.7,68.9z M285.9,72.7h0.1c-0.1,0.2-0.3,0-0.3,0C285.6,72.6,285.8,72.7,285.9,72.7  C285.9,72.6,285.8,72.7,285.9,72.7L285.9,72.7z M284.8,69c0.1-0.1,0.2-0.2,0.3-0.2C285,68.9,284.9,68.9,284.8,69L284.8,69z   M298.2,70.2c-0.1,0,0.2-0.2,0.1,0C298.2,70.2,298.2,70.2,298.2,70.2C298.1,70.2,298.2,70.2,298.2,70.2L298.2,70.2z M302.2,69.9  c-0.1,0-0.1-0.1-0.1-0.1l0,0C302.1,69.8,302.2,69.8,302.2,69.9L302.2,69.9z M285.2,69.4c0-0.1,0.1-0.1,0.2-0.2  C285.4,69.3,285.3,69.4,285.2,69.4L285.2,69.4z M284.3,70.3c-0.1,0.1-0.1,0.1-0.2,0.2C284.1,70.3,284.2,70.3,284.3,70.3L284.3,70.3  z M293.6,68.1C293.6,68.1,293.6,68.2,293.6,68.1C293.6,68.2,293.4,68.1,293.6,68.1C293.5,68,293.6,68.1,293.6,68.1L293.6,68.1  L293.6,68.1L293.6,68.1z M282.1,79.7C282.1,79.8,282.1,79.8,282.1,79.7c0,0.1-0.1,0.1-0.1,0.1C282,79.8,282.1,79.6,282.1,79.7  C282.1,79.8,282.1,79.7,282.1,79.7L282.1,79.7z M292.1,93.9L292.1,93.9C292.2,94.1,291.9,94,292.1,93.9  C292.1,93.9,292,93.9,292.1,93.9L292.1,93.9z M284.4,70.3c0,0.1-0.1,0.1-0.1,0.1L284.4,70.3L284.4,70.3z M281.8,86.1  C281.8,86.3,281.7,86,281.8,86.1C281.8,86.2,281.8,86.1,281.8,86.1L281.8,86.1z M285.5,70.2L285.5,70.2  C285.5,70.3,285.5,70.3,285.5,70.2L285.5,70.2z M284.4,69L284.4,69L284.4,69L284.4,69z M284.4,69C284.3,69,284.4,69,284.4,69  L284.4,69z M284.3,69.1L284.3,69.1L284.3,69.1z M284.3,69.1C284.3,69,284.3,69,284.3,69.1L284.3,69.1L284.3,69.1z M284.8,69  L284.8,69L284.8,69z M284.8,69L284.8,69C284.7,69,284.8,69,284.8,69L284.8,69z M284,86.2C283.9,86.2,284,86.2,284,86.2L284,86.2  L284,86.2z M295.8,66.9C295.9,66.9,295.8,66.9,295.8,66.9z M293.6,68.2L293.6,68.2L293.6,68.2L293.6,68.2L293.6,68.2z M284.7,69  L284.7,69L284.7,69L284.7,69z M284.7,69L284.7,69L284.7,69L284.7,69L284.7,69z M300,69.5L300,69.5L300,69.5L300,69.5z M290.9,82.9  C290.9,82.9,291,82.9,290.9,82.9L290.9,82.9L290.9,82.9z M302.5,94.8L302.5,94.8L302.5,94.8L302.5,94.8z M302.5,94.8L302.5,94.8z   M282.7,73.7c0,0,0.1-0.1,0.1,0C282.8,73.7,282.7,73.7,282.7,73.7L282.7,73.7L282.7,73.7z M281.5,72.7  C281.4,72.7,281.4,72.7,281.5,72.7C281.5,72.6,281.5,72.7,281.5,72.7C281.4,72.7,281.5,72.7,281.5,72.7L281.5,72.7z"></path>	<path class="st0" d="M295,66.5c7.8,2.8,11.9,11.4,9,19.2c-2.8,7.8-11.4,11.8-19.3,9c-1.3-0.5-2.6-1.1-3.7-2  c5.8,6.5,15.9,7.1,22.4,1.2c6.5-5.8,7.1-15.9,1.2-22.4C302.1,68.8,298.7,67,295,66.5z"></path>	<path class="st7" d="M302.2,69.9c-0.1,0-0.1-0.1-0.1-0.1l0,0C302.1,69.8,302.2,69.8,302.2,69.9z M293.2,96c-0.4,0-0.9,0.2-1.3,0  c-0.2-0.1-0.5-0.2-0.7-0.4c0.4,0,0.8-0.1,1.2-0.2c0,0,0,0.1,0.2,0.2c-0.5,0.2,0.1,0.3,0.1,0.3c-0.1,0,0,0,0-0.1c0,0-0.1,0.1-0.2,0  c-0.2-0.2,0.4-0.1,0.4-0.1c0.2,0,0.4,0,0.6,0C293.4,95.9,293.3,95.9,293.2,96C293.2,96,293.1,96,293.2,96z M291.7,95.8  C291.6,95.8,291.6,95.8,291.7,95.8L291.7,95.8L291.7,95.8z M292.3,95.8C292.3,95.9,292.3,95.9,292.3,95.8  C292.4,95.9,292.4,95.8,292.3,95.8L292.3,95.8z M301.7,70c-0.1,0-0.2,0-0.3,0C301.4,70.1,301.5,70,301.7,70  C301.5,70,301.6,70,301.7,70C301.6,70.1,301.6,70,301.7,70L301.7,70z M299.9,69.4C299.9,69.4,299.9,69.5,299.9,69.4L299.9,69.4  L299.9,69.4L299.9,69.4z M300,69.5L300,69.5L300,69.5L300,69.5z M293.2,96L293.2,96L293.2,96L293.2,96z M304.9,72.3L304.9,72.3  L304.9,72.3z M302.4,94.8c-0.3,0-1.3,0.7-1.5,0.5c-0.2,0.1-0.5,0.2-0.7,0.4c-0.3,0.1-0.6,0.3-0.9,0.5c-0.5,0.3-0.9,0.6-1.5,0.8  c-0.2,0.1-1.6,0.6-1.8,0.3c-0.1-0.2-0.4-0.1-0.5-0.3c-0.1-0.1-0.2-0.2-0.4-0.3c0-0.1,0.2-0.2,0.3-0.2c-0.1-0.1,0-0.1,0.1-0.2  c-0.3,0.1-0.6,0.2-0.8,0.4c0,0.1,0.1,0.1,0,0.2c0,0.1-0.2,0.1-0.2,0.1c0,0.1,0.5-0.1,0.3,0.2c0,0-0.4,0.2-0.5,0.2  c0,0.1,0.6,0,0.7,0.1c-0.6,0.1-1.2,0.3-1.8,0.4c0.2,0.1,0.4,0,0.7,0c-0.2,0.1-0.4,0.1-0.7,0.1c1.7,0,3.3-0.3,4.8-0.9  c0.8-0.3,1.6-0.6,2.3-1.1C300.7,96,302.5,94.8,302.4,94.8L302.4,94.8L302.4,94.8z M307.7,77.8L307.7,77.8  C307.7,77.9,307.7,77.8,307.7,77.8L307.7,77.8z M305.9,73.3c0.2,0.2,0.3,0.5,0.5,0.7C306.2,73.7,306.1,73.5,305.9,73.3L305.9,73.3z   M308.2,78.7c0.3,1.2,0.4,2.4,0.3,3.7c-0.1,0.6-0.1,1.2-0.2,1.8c0,0.2-0.2,0.4-0.2,0.7c0,0.3-0.1,0.5-0.2,0.8  c-0.2,0.4-0.3,1-0.7,1.4c-0.2,0.2-0.5,0.2-0.6,0.5c-0.2-0.2,0-0.7,0-1c-0.1-0.4-0.1-0.9-0.1-1.3c0.1-0.9-0.5-1.6-0.4-2.5  c0-0.3,0.1-0.6,0.1-0.9c0.1-0.3-0.1-0.7-0.2-1c-0.1-0.4-0.3-0.8-0.6-1.2c-0.1-0.1-0.7-0.5-0.5-0.7c0.1-0.2,0-0.6-0.2-1  c-0.1-0.6-0.2-1.1-0.4-1.7c-0.6-1.9-1.5-3.7-2.8-5.2h0.1c0.1,0,0.2,0,0.4,0.1c0.2,0.1-0.5-0.7-0.1-0.6c0.3,0.1,0.6,0.1,0.9,0.1  c0,0,0-0.1,0-0.2c0.2-0.1,0.4,0.1,0-0.3c-0.1-0.1-0.8-0.8-0.9-0.8c0,0,0.1,0.1,0,0.1c0,0.1-0.2-0.1-0.3-0.1l0.1,0.1  c-0.4-0.1-0.8-0.3-1.1-0.5c0,0,0.1,0,0.1-0.1l-0.1-0.1c0,0,0.1,0,0.1-0.1c0,0-0.1-0.1-0.1-0.2c0.1-0.1,0.4,0.1,0.5,0  c-0.3-0.3-0.7-0.5-1.1-0.5c0,0.1,0,0.1,0,0.1c-0.1-0.1-0.2,0-0.3-0.2c0.1,0,0.2,0.1,0.2,0s-0.3-0.2-0.4-0.3c0,0.1,0,0.1,0.1,0.2  c-0.1,0.1-0.2,0-0.2,0c0.3,0.4,0.7,0.7,1.2,0.8c0,0-0.2,0.2-0.1,0.1c-0.2,0-0.1,0.1-0.2,0.1c0.1,0.2,0.4,0.2,0.5,0.3  c0.1,0.1,0.2,0.2,0.3,0.3c-0.2,0-0.3-0.1-0.5-0.2s-0.5-0.2-0.7-0.4c-0.1-0.1-0.3-0.2-0.4-0.2c-1.1-0.9-2.2-1.6-3.5-2.2  c0-0.1-0.2-0.1-0.3-0.1c-0.2-0.1-0.4-0.2-0.6-0.2c0.1,0,0.2,0,0.3,0c0.3,0.1,0.6,0.1,0.9,0.2c0.6,0.1,1.3,0.3,1.9,0.5  c2.6,0.9,5,2.6,6.8,4.7c0.3,0.4,0.6,0.8,0.9,1.3c-0.7-0.8-1.4-1.5-2.2-2.2c-0.1,0.1,1.1,1,1.2,1.2c0.1,0.1,0,0.1,0,0  c0.5,0.6,1,1.2,1.5,1.8c0,0,0,0,0-0.1c0.2,0.3,0.4,0.6,0.6,0.9l0,0C307.5,76.1,308,77.4,308.2,78.7L308.2,78.7z M307.3,77.4  c0-0.1,0-0.2,0-0.3C307.2,77.3,307.2,77.4,307.3,77.4L307.3,77.4z M307.3,77.9C307.3,77.8,307.3,77.8,307.3,77.9  C307.3,77.9,307.3,77.9,307.3,77.9L307.3,77.9z M308.2,81.9l-0.1,0.1C308.2,82,308.2,82,308.2,81.9C308.2,82,308.2,81.9,308.2,81.9  L308.2,81.9L308.2,81.9z M307.9,80.1c-0.1,0.1-0.1,0.1-0.1,0.3C307.8,80.2,307.9,80.2,307.9,80.1L307.9,80.1z M307.7,79.6  c0,0.2,0.1,0.4,0.2,0.5c-0.1-0.5-0.3-0.9-0.4-1.4C307.6,79,307.6,79.3,307.7,79.6C307.7,79.5,307.8,79.6,307.7,79.6L307.7,79.6z   M308.2,80.3L308.2,80.3c0.1,0.3,0,0.7,0.1,1.2C308.4,81.1,308.4,80.7,308.2,80.3C308.2,80.4,308.2,80.3,308.2,80.3L308.2,80.3z   M307.7,77.8c0-0.1,0-0.2-0.1-0.2c-0.2,0.2,0,0.6,0.1,0.8C307.8,78.2,307.7,78.1,307.7,77.8C307.7,77.8,307.6,77.8,307.7,77.8  L307.7,77.8z M302.5,94.8L302.5,94.8L302.5,94.8L302.5,94.8z M308.7,83L308.7,83L308.7,83L308.7,83z M308.7,83.2c0,0.2,0,0.3,0,0.5  C308.6,83.6,308.7,83.4,308.7,83.2L308.7,83.2z"></path></g></svg>